G04*
G04 #@! TF.GenerationSoftware,Altium Limited,Altium Designer,19.1.8 (144)*
G04*
G04 Layer_Physical_Order=1*
G04 Layer_Color=255*
%FSLAX44Y44*%
%MOMM*%
G71*
G01*
G75*
%ADD14C,0.6350*%
%ADD15C,0.3302*%
%ADD16R,1.5000X1.5000*%
%ADD17C,1.5000*%
%ADD18C,1.0000*%
%ADD19C,0.7620*%
G36*
X422410Y2590D02*
X2590D01*
Y217410D01*
X422410D01*
Y2590D01*
D02*
G37*
%LPC*%
G36*
X291270Y207438D02*
Y201270D01*
X297438D01*
X297346Y201968D01*
X296586Y203803D01*
X295378Y205378D01*
X293803Y206586D01*
X291968Y207346D01*
X291270Y207438D01*
D02*
G37*
G36*
X288730D02*
X288032Y207346D01*
X286197Y206586D01*
X284622Y205378D01*
X283414Y203803D01*
X282654Y201968D01*
X282562Y201270D01*
X288730D01*
Y207438D01*
D02*
G37*
G36*
X271270D02*
Y201270D01*
X277438D01*
X277346Y201968D01*
X276586Y203803D01*
X275378Y205378D01*
X273803Y206586D01*
X271968Y207346D01*
X271270Y207438D01*
D02*
G37*
G36*
X268730D02*
X268032Y207346D01*
X266197Y206586D01*
X264622Y205378D01*
X263414Y203803D01*
X262654Y201968D01*
X262562Y201270D01*
X268730D01*
Y207438D01*
D02*
G37*
G36*
X297438Y198730D02*
X291270D01*
Y192562D01*
X291968Y192654D01*
X293803Y193414D01*
X295378Y194622D01*
X296586Y196197D01*
X297346Y198032D01*
X297438Y198730D01*
D02*
G37*
G36*
X288730D02*
X282562D01*
X282654Y198032D01*
X283414Y196197D01*
X284622Y194622D01*
X286197Y193414D01*
X288032Y192654D01*
X288730Y192562D01*
Y198730D01*
D02*
G37*
G36*
X277438D02*
X271270D01*
Y192562D01*
X271968Y192654D01*
X273803Y193414D01*
X275378Y194622D01*
X276586Y196197D01*
X277346Y198032D01*
X277438Y198730D01*
D02*
G37*
G36*
X268730D02*
X262562D01*
X262654Y198032D01*
X263414Y196197D01*
X264622Y194622D01*
X266197Y193414D01*
X268032Y192654D01*
X268730Y192562D01*
Y198730D01*
D02*
G37*
G36*
X250000Y206393D02*
X247554Y205906D01*
X245480Y204520D01*
X244094Y202446D01*
X243607Y200000D01*
X244094Y197554D01*
X245480Y195480D01*
X245553Y195431D01*
X245825Y195146D01*
X246076Y194844D01*
X246293Y194540D01*
X246477Y194234D01*
X246630Y193926D01*
X246754Y193614D01*
X246849Y193296D01*
X246918Y192969D01*
X246959Y192631D01*
X246975Y192225D01*
X247022Y192125D01*
Y185321D01*
X245752Y184890D01*
X245378Y185378D01*
X243803Y186586D01*
X241968Y187346D01*
X241270Y187438D01*
Y180000D01*
Y172562D01*
X241968Y172654D01*
X243803Y173414D01*
X245378Y174622D01*
X245752Y175110D01*
X247022Y174679D01*
Y157875D01*
X246975Y157775D01*
X246959Y157369D01*
X246918Y157031D01*
X246849Y156704D01*
X246754Y156386D01*
X246630Y156074D01*
X246477Y155766D01*
X246293Y155460D01*
X246076Y155156D01*
X245825Y154854D01*
X245553Y154570D01*
X245480Y154520D01*
X244094Y152446D01*
X243607Y150000D01*
X244094Y147554D01*
X245480Y145480D01*
X245553Y145430D01*
X245825Y145146D01*
X246076Y144844D01*
X246293Y144540D01*
X246477Y144234D01*
X246630Y143926D01*
X246754Y143614D01*
X246849Y143296D01*
X246918Y142969D01*
X246959Y142631D01*
X246975Y142226D01*
X247022Y142125D01*
Y135321D01*
X245752Y134890D01*
X245378Y135378D01*
X243803Y136586D01*
X241968Y137346D01*
X241270Y137438D01*
Y130000D01*
Y122562D01*
X241968Y122654D01*
X243803Y123414D01*
X245378Y124622D01*
X245752Y125110D01*
X247022Y124679D01*
Y98400D01*
X247248Y97260D01*
X247894Y96294D01*
X262815Y81373D01*
X262848Y81277D01*
X263189Y80892D01*
X263452Y80514D01*
X263693Y80075D01*
X263909Y79569D01*
X264097Y78995D01*
X264254Y78351D01*
X264375Y77656D01*
X264515Y75988D01*
X264526Y75059D01*
X264556Y74989D01*
X264856Y72711D01*
X265739Y70577D01*
X267145Y68745D01*
X268977Y67339D01*
X271111Y66456D01*
X273400Y66154D01*
X275689Y66456D01*
X277823Y67339D01*
X279655Y68745D01*
X281061Y70577D01*
X281944Y72711D01*
X282246Y75000D01*
X281944Y77289D01*
X281061Y79423D01*
X279655Y81255D01*
X277823Y82661D01*
X275689Y83544D01*
X273411Y83844D01*
X273341Y83874D01*
X272395Y83885D01*
X271544Y83935D01*
X270762Y84022D01*
X270049Y84146D01*
X269405Y84303D01*
X268831Y84491D01*
X268325Y84707D01*
X267885Y84948D01*
X267508Y85211D01*
X267124Y85552D01*
X267027Y85585D01*
X252978Y99634D01*
Y124679D01*
X254248Y125110D01*
X254622Y124622D01*
X256197Y123414D01*
X258032Y122654D01*
X258730Y122562D01*
Y130000D01*
Y137438D01*
X258032Y137346D01*
X256197Y136586D01*
X254622Y135378D01*
X254248Y134890D01*
X252978Y135321D01*
Y142125D01*
X253025Y142225D01*
X253041Y142631D01*
X253082Y142969D01*
X253151Y143296D01*
X253246Y143614D01*
X253370Y143926D01*
X253523Y144234D01*
X253707Y144540D01*
X253924Y144844D01*
X254175Y145146D01*
X254447Y145430D01*
X254520Y145480D01*
X255906Y147554D01*
X256393Y150000D01*
X255906Y152446D01*
X254520Y154520D01*
X254447Y154570D01*
X254175Y154854D01*
X253924Y155156D01*
X253707Y155460D01*
X253523Y155766D01*
X253370Y156074D01*
X253246Y156386D01*
X253151Y156704D01*
X253082Y157031D01*
X253041Y157369D01*
X253025Y157774D01*
X252978Y157875D01*
Y174679D01*
X254248Y175110D01*
X254622Y174622D01*
X256197Y173414D01*
X258032Y172654D01*
X258730Y172562D01*
Y180000D01*
Y187438D01*
X258032Y187346D01*
X256197Y186586D01*
X254622Y185378D01*
X254248Y184890D01*
X252978Y185321D01*
Y192125D01*
X253025Y192225D01*
X253041Y192631D01*
X253082Y192969D01*
X253151Y193296D01*
X253246Y193614D01*
X253370Y193926D01*
X253523Y194234D01*
X253707Y194540D01*
X253924Y194844D01*
X254175Y195146D01*
X254447Y195431D01*
X254520Y195480D01*
X255906Y197554D01*
X256393Y200000D01*
X255906Y202446D01*
X254520Y204520D01*
X252446Y205906D01*
X250000Y206393D01*
D02*
G37*
G36*
X190000D02*
X187554Y205906D01*
X185480Y204520D01*
X184094Y202446D01*
X183607Y200000D01*
X184094Y197554D01*
X185480Y195480D01*
X185553Y195431D01*
X185825Y195146D01*
X186076Y194844D01*
X186293Y194540D01*
X186477Y194234D01*
X186630Y193926D01*
X186754Y193614D01*
X186849Y193296D01*
X186918Y192969D01*
X186959Y192631D01*
X186975Y192225D01*
X187022Y192125D01*
Y185321D01*
X185752Y184890D01*
X185378Y185378D01*
X183803Y186586D01*
X181968Y187346D01*
X181270Y187438D01*
Y180000D01*
Y172562D01*
X181968Y172654D01*
X183803Y173414D01*
X185378Y174622D01*
X185752Y175110D01*
X187022Y174679D01*
Y157875D01*
X186975Y157775D01*
X186959Y157369D01*
X186918Y157031D01*
X186849Y156704D01*
X186754Y156386D01*
X186630Y156074D01*
X186477Y155766D01*
X186293Y155460D01*
X186076Y155156D01*
X185825Y154854D01*
X185553Y154570D01*
X185480Y154520D01*
X184094Y152446D01*
X183607Y150000D01*
X184094Y147554D01*
X185480Y145480D01*
X185553Y145430D01*
X185825Y145146D01*
X186076Y144844D01*
X186293Y144540D01*
X186477Y144234D01*
X186630Y143926D01*
X186754Y143614D01*
X186849Y143296D01*
X186918Y142969D01*
X186959Y142631D01*
X186975Y142226D01*
X187022Y142125D01*
Y135321D01*
X185752Y134890D01*
X185378Y135378D01*
X183803Y136586D01*
X181968Y137346D01*
X181270Y137438D01*
Y130000D01*
Y122562D01*
X181968Y122654D01*
X183803Y123414D01*
X185378Y124622D01*
X185752Y125110D01*
X187022Y124679D01*
Y94434D01*
X178173Y85585D01*
X178076Y85552D01*
X177692Y85211D01*
X177314Y84948D01*
X176875Y84707D01*
X176369Y84491D01*
X175795Y84303D01*
X175151Y84146D01*
X174456Y84025D01*
X172787Y83885D01*
X171859Y83874D01*
X171789Y83844D01*
X169511Y83544D01*
X167377Y82661D01*
X165545Y81255D01*
X164139Y79423D01*
X163256Y77289D01*
X162954Y75000D01*
X163256Y72711D01*
X164139Y70577D01*
X165545Y68745D01*
X167377Y67339D01*
X169511Y66456D01*
X171800Y66154D01*
X174089Y66456D01*
X176223Y67339D01*
X178055Y68745D01*
X179461Y70577D01*
X180344Y72711D01*
X180644Y74989D01*
X180674Y75059D01*
X180685Y76005D01*
X180735Y76856D01*
X180822Y77638D01*
X180946Y78351D01*
X181103Y78995D01*
X181291Y79569D01*
X181507Y80075D01*
X181748Y80514D01*
X182011Y80892D01*
X182352Y81277D01*
X182385Y81373D01*
X192106Y91094D01*
X192752Y92060D01*
X192978Y93200D01*
Y124679D01*
X194248Y125110D01*
X194622Y124622D01*
X196197Y123414D01*
X198032Y122654D01*
X198730Y122562D01*
Y130000D01*
Y137438D01*
X198032Y137346D01*
X196197Y136586D01*
X194622Y135378D01*
X194248Y134890D01*
X192978Y135321D01*
Y142125D01*
X193025Y142225D01*
X193041Y142631D01*
X193082Y142969D01*
X193151Y143296D01*
X193246Y143614D01*
X193370Y143926D01*
X193523Y144234D01*
X193707Y144540D01*
X193924Y144844D01*
X194175Y145146D01*
X194447Y145430D01*
X194520Y145480D01*
X195906Y147554D01*
X196393Y150000D01*
X195906Y152446D01*
X194520Y154520D01*
X194447Y154570D01*
X194175Y154854D01*
X193924Y155156D01*
X193707Y155460D01*
X193523Y155766D01*
X193370Y156074D01*
X193246Y156386D01*
X193151Y156704D01*
X193082Y157031D01*
X193041Y157369D01*
X193025Y157774D01*
X192978Y157875D01*
Y174679D01*
X194248Y175110D01*
X194622Y174622D01*
X196197Y173414D01*
X198032Y172654D01*
X198730Y172562D01*
Y180000D01*
Y187438D01*
X198032Y187346D01*
X196197Y186586D01*
X194622Y185378D01*
X194248Y184890D01*
X192978Y185321D01*
Y192125D01*
X193025Y192225D01*
X193041Y192631D01*
X193082Y192969D01*
X193151Y193296D01*
X193246Y193614D01*
X193370Y193926D01*
X193523Y194234D01*
X193707Y194540D01*
X193924Y194844D01*
X194175Y195146D01*
X194447Y195431D01*
X194520Y195480D01*
X195906Y197554D01*
X196393Y200000D01*
X195906Y202446D01*
X194520Y204520D01*
X192446Y205906D01*
X190000Y206393D01*
D02*
G37*
G36*
X170000D02*
X167554Y205906D01*
X165480Y204520D01*
X164094Y202446D01*
X163607Y200000D01*
X164094Y197554D01*
X165480Y195480D01*
X165553Y195431D01*
X165825Y195146D01*
X166076Y194844D01*
X166293Y194540D01*
X166477Y194234D01*
X166630Y193926D01*
X166754Y193614D01*
X166849Y193296D01*
X166918Y192969D01*
X166959Y192631D01*
X166975Y192225D01*
X167022Y192125D01*
Y182889D01*
X166881Y182833D01*
X165752Y182678D01*
X164520Y184520D01*
X162446Y185906D01*
X160000Y186393D01*
X157554Y185906D01*
X155480Y184520D01*
X154248Y182678D01*
X153119Y182833D01*
X152978Y182889D01*
Y192125D01*
X153025Y192225D01*
X153041Y192631D01*
X153082Y192969D01*
X153151Y193296D01*
X153246Y193614D01*
X153370Y193926D01*
X153523Y194234D01*
X153707Y194540D01*
X153924Y194844D01*
X154175Y195146D01*
X154447Y195431D01*
X154520Y195480D01*
X155906Y197554D01*
X156393Y200000D01*
X155906Y202446D01*
X154520Y204520D01*
X152446Y205906D01*
X150000Y206393D01*
X147554Y205906D01*
X145480Y204520D01*
X144094Y202446D01*
X143607Y200000D01*
X144094Y197554D01*
X145480Y195480D01*
X145553Y195431D01*
X145825Y195146D01*
X146076Y194844D01*
X146293Y194540D01*
X146477Y194234D01*
X146630Y193926D01*
X146754Y193614D01*
X146849Y193296D01*
X146918Y192969D01*
X146959Y192631D01*
X146975Y192225D01*
X147022Y192125D01*
Y182889D01*
X146881Y182833D01*
X145752Y182678D01*
X144520Y184520D01*
X142446Y185906D01*
X140000Y186393D01*
X137554Y185906D01*
X135480Y184520D01*
X134094Y182446D01*
X133607Y180000D01*
X134094Y177554D01*
X135480Y175480D01*
X135553Y175431D01*
X135825Y175146D01*
X136076Y174844D01*
X136293Y174540D01*
X136477Y174234D01*
X136630Y173926D01*
X136754Y173614D01*
X136849Y173296D01*
X136918Y172969D01*
X136959Y172631D01*
X136975Y172225D01*
X137022Y172125D01*
Y137875D01*
X136975Y137775D01*
X136959Y137369D01*
X136918Y137031D01*
X136849Y136704D01*
X136754Y136386D01*
X136630Y136074D01*
X136477Y135766D01*
X136293Y135460D01*
X136076Y135156D01*
X135825Y134854D01*
X135553Y134570D01*
X135480Y134520D01*
X135430Y134447D01*
X135146Y134175D01*
X134844Y133924D01*
X134540Y133707D01*
X134234Y133523D01*
X133926Y133370D01*
X133614Y133246D01*
X133296Y133151D01*
X132969Y133082D01*
X132631Y133041D01*
X132226Y133025D01*
X132125Y132978D01*
X125200D01*
X124060Y132752D01*
X123094Y132106D01*
X76838Y85850D01*
X76733Y85811D01*
X75458Y84625D01*
X74946Y84214D01*
X74495Y83898D01*
X74273Y83770D01*
X73105D01*
X73000Y83814D01*
X72894Y83770D01*
X72892D01*
X72782Y83796D01*
X72739Y83770D01*
X61430D01*
Y66230D01*
X78970D01*
Y77539D01*
X78996Y77582D01*
X78970Y77692D01*
Y77694D01*
X79014Y77800D01*
X78970Y77905D01*
Y79073D01*
X79098Y79295D01*
X79404Y79731D01*
X80367Y80867D01*
X80993Y81514D01*
X81036Y81625D01*
X126434Y127022D01*
X132125D01*
X132225Y126975D01*
X132631Y126959D01*
X132969Y126918D01*
X133296Y126849D01*
X133614Y126754D01*
X133926Y126630D01*
X134234Y126477D01*
X134540Y126293D01*
X134844Y126076D01*
X135146Y125825D01*
X135430Y125553D01*
X135480Y125480D01*
X137554Y124094D01*
X139300Y123747D01*
X139718Y122368D01*
X102561Y85212D01*
X102476Y85186D01*
X102465Y85165D01*
X102444Y85158D01*
X102048Y84808D01*
X101671Y84549D01*
X101242Y84323D01*
X100755Y84129D01*
X100206Y83972D01*
X99593Y83854D01*
X98914Y83778D01*
X98171Y83747D01*
X97363Y83764D01*
X96458Y83833D01*
X96241Y83761D01*
X95600Y83846D01*
X93311Y83544D01*
X91177Y82661D01*
X89345Y81255D01*
X87939Y79423D01*
X87056Y77289D01*
X86754Y75000D01*
X87056Y72711D01*
X87939Y70577D01*
X89345Y68745D01*
X91177Y67339D01*
X93311Y66456D01*
X95600Y66154D01*
X97889Y66456D01*
X100023Y67339D01*
X101855Y68745D01*
X103261Y70577D01*
X104144Y72711D01*
X104317Y74023D01*
X104444Y74260D01*
X104539Y75227D01*
X104817Y76960D01*
X104990Y77687D01*
X105189Y78356D01*
X105410Y78950D01*
X105650Y79470D01*
X105904Y79917D01*
X106170Y80291D01*
X106499Y80662D01*
X106532Y80759D01*
X152106Y126333D01*
X152752Y127299D01*
X152801Y127545D01*
X154078Y127553D01*
X154096Y127550D01*
X155480Y125480D01*
X155553Y125430D01*
X155825Y125146D01*
X156076Y124844D01*
X156293Y124540D01*
X156477Y124234D01*
X156630Y123926D01*
X156754Y123614D01*
X156849Y123296D01*
X156918Y122969D01*
X156959Y122631D01*
X156975Y122226D01*
X157022Y122125D01*
Y115234D01*
X127373Y85585D01*
X127276Y85552D01*
X126892Y85211D01*
X126514Y84948D01*
X126075Y84707D01*
X125569Y84491D01*
X124995Y84303D01*
X124351Y84146D01*
X123656Y84025D01*
X121987Y83885D01*
X121059Y83874D01*
X120989Y83844D01*
X118711Y83544D01*
X116577Y82661D01*
X114745Y81255D01*
X113339Y79423D01*
X112456Y77289D01*
X112154Y75000D01*
X112456Y72711D01*
X113339Y70577D01*
X114745Y68745D01*
X116577Y67339D01*
X118711Y66456D01*
X121000Y66154D01*
X123289Y66456D01*
X125423Y67339D01*
X127255Y68745D01*
X128661Y70577D01*
X129544Y72711D01*
X129844Y74989D01*
X129874Y75059D01*
X129885Y76005D01*
X129935Y76856D01*
X130022Y77638D01*
X130146Y78351D01*
X130303Y78995D01*
X130491Y79569D01*
X130708Y80075D01*
X130948Y80514D01*
X131211Y80892D01*
X131552Y81277D01*
X131585Y81373D01*
X162106Y111894D01*
X162752Y112860D01*
X162978Y114000D01*
Y122125D01*
X163025Y122225D01*
X163041Y122631D01*
X163082Y122969D01*
X163151Y123296D01*
X163246Y123614D01*
X163370Y123926D01*
X163523Y124234D01*
X163707Y124540D01*
X163924Y124844D01*
X164175Y125146D01*
X164447Y125430D01*
X164520Y125480D01*
X165752Y127322D01*
X166881Y127167D01*
X167022Y127111D01*
Y99834D01*
X152773Y85585D01*
X152676Y85552D01*
X152292Y85211D01*
X151914Y84948D01*
X151475Y84707D01*
X150969Y84491D01*
X150395Y84303D01*
X149751Y84146D01*
X149056Y84025D01*
X147388Y83885D01*
X146459Y83874D01*
X146389Y83844D01*
X144111Y83544D01*
X141977Y82661D01*
X140145Y81255D01*
X138739Y79423D01*
X137856Y77289D01*
X137554Y75000D01*
X137856Y72711D01*
X138739Y70577D01*
X140145Y68745D01*
X141977Y67339D01*
X144111Y66456D01*
X146400Y66154D01*
X148689Y66456D01*
X150823Y67339D01*
X152655Y68745D01*
X154061Y70577D01*
X154944Y72711D01*
X155244Y74989D01*
X155274Y75059D01*
X155285Y76005D01*
X155335Y76856D01*
X155422Y77638D01*
X155546Y78351D01*
X155703Y78995D01*
X155891Y79569D01*
X156108Y80075D01*
X156348Y80514D01*
X156611Y80892D01*
X156952Y81277D01*
X156985Y81373D01*
X172106Y96494D01*
X172752Y97460D01*
X172978Y98600D01*
Y124679D01*
X174248Y125110D01*
X174622Y124622D01*
X176197Y123414D01*
X178032Y122654D01*
X178730Y122562D01*
Y130000D01*
Y137438D01*
X178032Y137346D01*
X176197Y136586D01*
X174622Y135378D01*
X174248Y134890D01*
X172978Y135321D01*
Y142125D01*
X173025Y142225D01*
X173041Y142631D01*
X173082Y142969D01*
X173151Y143296D01*
X173246Y143614D01*
X173370Y143926D01*
X173523Y144234D01*
X173707Y144540D01*
X173924Y144844D01*
X174175Y145146D01*
X174447Y145430D01*
X174520Y145480D01*
X175906Y147554D01*
X176393Y150000D01*
X175906Y152446D01*
X174520Y154520D01*
X174447Y154570D01*
X174175Y154854D01*
X173924Y155156D01*
X173707Y155460D01*
X173523Y155766D01*
X173370Y156074D01*
X173246Y156386D01*
X173151Y156704D01*
X173082Y157031D01*
X173041Y157369D01*
X173025Y157774D01*
X172978Y157875D01*
Y174679D01*
X174248Y175110D01*
X174622Y174622D01*
X176197Y173414D01*
X178032Y172654D01*
X178730Y172562D01*
Y180000D01*
Y187438D01*
X178032Y187346D01*
X176197Y186586D01*
X174622Y185378D01*
X174248Y184890D01*
X172978Y185321D01*
Y192125D01*
X173025Y192225D01*
X173041Y192631D01*
X173082Y192969D01*
X173151Y193296D01*
X173246Y193614D01*
X173370Y193926D01*
X173523Y194234D01*
X173707Y194540D01*
X173924Y194844D01*
X174175Y195146D01*
X174447Y195431D01*
X174520Y195480D01*
X175906Y197554D01*
X176393Y200000D01*
X175906Y202446D01*
X174520Y204520D01*
X172446Y205906D01*
X170000Y206393D01*
D02*
G37*
G36*
X330000D02*
X327554Y205906D01*
X325480Y204520D01*
X324094Y202446D01*
X323607Y200000D01*
X324094Y197554D01*
X325480Y195480D01*
X325553Y195431D01*
X325825Y195146D01*
X326076Y194844D01*
X326293Y194540D01*
X326477Y194234D01*
X326630Y193926D01*
X326754Y193614D01*
X326849Y193296D01*
X326918Y192969D01*
X326959Y192631D01*
X326975Y192225D01*
X327022Y192125D01*
Y182889D01*
X326881Y182833D01*
X325752Y182678D01*
X324520Y184520D01*
X322446Y185906D01*
X320000Y186393D01*
X317554Y185906D01*
X315740Y184694D01*
X313655Y184553D01*
X313130Y184550D01*
X312902Y184761D01*
X312815Y186406D01*
X313205Y186795D01*
X314187Y188266D01*
X314532Y190000D01*
X314532Y190000D01*
Y193080D01*
X314550Y193121D01*
X314562Y194181D01*
X314599Y194993D01*
X314655Y195567D01*
X314681Y195718D01*
X314681Y195721D01*
X315906Y197554D01*
X316393Y200000D01*
X315906Y202446D01*
X314520Y204520D01*
X312446Y205906D01*
X310000Y206393D01*
X307554Y205906D01*
X305480Y204520D01*
X304094Y202446D01*
X303607Y200000D01*
X304094Y197554D01*
X305306Y195740D01*
X305447Y193655D01*
X305450Y193130D01*
X305468Y193088D01*
Y191877D01*
X301688Y188098D01*
X301647Y188081D01*
X300889Y187341D01*
X300289Y186792D01*
X299843Y186426D01*
X299717Y186337D01*
X299716Y186336D01*
X297554Y185906D01*
X295480Y184520D01*
X294094Y182446D01*
X293607Y180000D01*
X294094Y177554D01*
X295306Y175740D01*
X295447Y173655D01*
X295450Y173130D01*
X295468Y173088D01*
Y156909D01*
X294198Y156283D01*
X293803Y156586D01*
X291968Y157346D01*
X291270Y157438D01*
Y150000D01*
Y142562D01*
X291968Y142654D01*
X293803Y143414D01*
X294198Y143717D01*
X295468Y143091D01*
Y136920D01*
X295450Y136879D01*
X295438Y135819D01*
X295401Y135007D01*
X295345Y134433D01*
X295319Y134282D01*
X295319Y134279D01*
X294094Y132446D01*
X293607Y130000D01*
X294094Y127554D01*
X295480Y125480D01*
X297554Y124094D01*
X299693Y123668D01*
X301268Y122294D01*
X301641Y121925D01*
X301683Y121908D01*
X319668Y103923D01*
Y86370D01*
X319651Y86332D01*
X319631Y85610D01*
X319576Y84969D01*
X319486Y84373D01*
X319363Y83821D01*
X319208Y83313D01*
X319022Y82845D01*
X318808Y82417D01*
X318564Y82026D01*
X318291Y81667D01*
X317942Y81290D01*
X317913Y81213D01*
X316539Y79423D01*
X315656Y77289D01*
X315354Y75000D01*
X315656Y72711D01*
X316539Y70577D01*
X317945Y68745D01*
X319777Y67339D01*
X321911Y66456D01*
X324200Y66154D01*
X326489Y66456D01*
X328623Y67339D01*
X330455Y68745D01*
X331861Y70577D01*
X332744Y72711D01*
X333046Y75000D01*
X332744Y77289D01*
X331861Y79423D01*
X330487Y81213D01*
X330458Y81290D01*
X330109Y81667D01*
X329836Y82026D01*
X329592Y82417D01*
X329378Y82845D01*
X329192Y83313D01*
X329037Y83821D01*
X328914Y84373D01*
X328824Y84969D01*
X328769Y85610D01*
X328749Y86332D01*
X328732Y86370D01*
Y105800D01*
X328387Y107534D01*
X327405Y109005D01*
X312817Y123592D01*
X312898Y125240D01*
X313121Y125450D01*
X314181Y125438D01*
X314993Y125401D01*
X315567Y125345D01*
X315718Y125319D01*
X315721Y125318D01*
X317554Y124094D01*
X319693Y123668D01*
X321268Y122294D01*
X321641Y121925D01*
X321683Y121908D01*
X345068Y98523D01*
Y86370D01*
X345051Y86332D01*
X345031Y85610D01*
X344976Y84969D01*
X344886Y84373D01*
X344763Y83821D01*
X344608Y83313D01*
X344422Y82845D01*
X344208Y82417D01*
X343964Y82026D01*
X343691Y81667D01*
X343342Y81290D01*
X343313Y81213D01*
X341939Y79423D01*
X341056Y77289D01*
X340754Y75000D01*
X341056Y72711D01*
X341939Y70577D01*
X343345Y68745D01*
X345177Y67339D01*
X347311Y66456D01*
X349600Y66154D01*
X351889Y66456D01*
X354023Y67339D01*
X355855Y68745D01*
X357261Y70577D01*
X358144Y72711D01*
X358446Y75000D01*
X358144Y77289D01*
X357261Y79423D01*
X355887Y81213D01*
X355858Y81290D01*
X355509Y81667D01*
X355236Y82026D01*
X354992Y82417D01*
X354778Y82845D01*
X354592Y83313D01*
X354437Y83821D01*
X354314Y84373D01*
X354224Y84969D01*
X354169Y85610D01*
X354149Y86332D01*
X354132Y86370D01*
Y100400D01*
X353787Y102134D01*
X352805Y103605D01*
X352805Y103605D01*
X328098Y128312D01*
X328081Y128353D01*
X327341Y129111D01*
X326792Y129712D01*
X326426Y130157D01*
X326337Y130283D01*
X326336Y130284D01*
X325906Y132446D01*
X324694Y134260D01*
X324553Y136345D01*
X324550Y136870D01*
X324532Y136912D01*
Y140000D01*
X324187Y141734D01*
X323205Y143205D01*
X323205Y143205D01*
X318098Y148312D01*
X318081Y148353D01*
X317341Y149111D01*
X316792Y149712D01*
X316577Y149974D01*
X317706Y151267D01*
X318075Y151641D01*
X318092Y151683D01*
X323205Y156795D01*
X323205Y156795D01*
X324187Y158266D01*
X324532Y160000D01*
Y173080D01*
X324549Y173121D01*
X324562Y174181D01*
X324599Y174993D01*
X324655Y175567D01*
X324681Y175718D01*
X324681Y175721D01*
X325752Y177322D01*
X326881Y177167D01*
X327022Y177111D01*
Y157875D01*
X326975Y157775D01*
X326959Y157369D01*
X326918Y157031D01*
X326849Y156704D01*
X326754Y156386D01*
X326630Y156074D01*
X326477Y155766D01*
X326293Y155460D01*
X326076Y155156D01*
X325825Y154854D01*
X325553Y154570D01*
X325480Y154520D01*
X324094Y152446D01*
X323607Y150000D01*
X324094Y147554D01*
X325480Y145480D01*
X327554Y144094D01*
X330000Y143607D01*
X330087Y143624D01*
X330480Y143616D01*
X330871Y143579D01*
X331240Y143518D01*
X331586Y143432D01*
X331912Y143322D01*
X332220Y143189D01*
X332513Y143031D01*
X332792Y142849D01*
X333060Y142639D01*
X333359Y142364D01*
X333462Y142326D01*
X372022Y103766D01*
Y86992D01*
X371977Y86899D01*
X371946Y86387D01*
X371865Y85934D01*
X371724Y85453D01*
X371520Y84942D01*
X371247Y84403D01*
X370903Y83837D01*
X370497Y83260D01*
X369416Y81981D01*
X368767Y81317D01*
X368739Y81246D01*
X367339Y79423D01*
X366456Y77289D01*
X366154Y75000D01*
X366456Y72711D01*
X367339Y70577D01*
X368745Y68745D01*
X370577Y67339D01*
X372711Y66456D01*
X375000Y66154D01*
X377289Y66456D01*
X379423Y67339D01*
X381255Y68745D01*
X382661Y70577D01*
X383544Y72711D01*
X383846Y75000D01*
X383544Y77289D01*
X382661Y79423D01*
X381261Y81246D01*
X381233Y81317D01*
X380572Y81993D01*
X380006Y82630D01*
X379514Y83245D01*
X379097Y83836D01*
X378753Y84403D01*
X378480Y84942D01*
X378276Y85453D01*
X378135Y85934D01*
X378054Y86387D01*
X378023Y86899D01*
X377978Y86992D01*
Y105000D01*
X377752Y106140D01*
X377106Y107106D01*
X337674Y146538D01*
X337636Y146641D01*
X337361Y146939D01*
X337151Y147208D01*
X336969Y147487D01*
X336811Y147780D01*
X336678Y148088D01*
X336568Y148414D01*
X336482Y148760D01*
X336421Y149129D01*
X336385Y149520D01*
X336376Y149913D01*
X336393Y150000D01*
X335906Y152446D01*
X334520Y154520D01*
X334447Y154570D01*
X334175Y154854D01*
X333924Y155156D01*
X333707Y155460D01*
X333523Y155766D01*
X333370Y156074D01*
X333246Y156386D01*
X333151Y156704D01*
X333082Y157031D01*
X333041Y157369D01*
X333025Y157774D01*
X332978Y157875D01*
Y192125D01*
X333025Y192225D01*
X333041Y192631D01*
X333082Y192969D01*
X333151Y193296D01*
X333246Y193614D01*
X333370Y193926D01*
X333523Y194234D01*
X333707Y194540D01*
X333924Y194844D01*
X334175Y195146D01*
X334447Y195431D01*
X334520Y195480D01*
X335906Y197554D01*
X336393Y200000D01*
X335906Y202446D01*
X334520Y204520D01*
X332446Y205906D01*
X330000Y206393D01*
D02*
G37*
G36*
X230000D02*
X227554Y205906D01*
X225480Y204520D01*
X224094Y202446D01*
X223607Y200000D01*
X224094Y197554D01*
X225480Y195480D01*
X225553Y195431D01*
X225825Y195146D01*
X226076Y194844D01*
X226293Y194540D01*
X226477Y194234D01*
X226630Y193926D01*
X226754Y193614D01*
X226849Y193296D01*
X226918Y192969D01*
X226959Y192631D01*
X226975Y192225D01*
X227022Y192125D01*
Y182889D01*
X226881Y182833D01*
X225752Y182678D01*
X224520Y184520D01*
X222446Y185906D01*
X220000Y186393D01*
X217554Y185906D01*
X215480Y184520D01*
X214248Y182678D01*
X213119Y182833D01*
X212978Y182889D01*
Y192125D01*
X213025Y192225D01*
X213041Y192631D01*
X213082Y192969D01*
X213151Y193296D01*
X213246Y193614D01*
X213370Y193926D01*
X213523Y194234D01*
X213707Y194540D01*
X213924Y194844D01*
X214175Y195146D01*
X214447Y195431D01*
X214520Y195480D01*
X215906Y197554D01*
X216393Y200000D01*
X215906Y202446D01*
X214520Y204520D01*
X212446Y205906D01*
X210000Y206393D01*
X207554Y205906D01*
X205480Y204520D01*
X204094Y202446D01*
X203607Y200000D01*
X204094Y197554D01*
X205480Y195480D01*
X205553Y195431D01*
X205825Y195146D01*
X206076Y194844D01*
X206293Y194540D01*
X206477Y194234D01*
X206630Y193926D01*
X206754Y193614D01*
X206849Y193296D01*
X206918Y192969D01*
X206959Y192631D01*
X206975Y192225D01*
X207022Y192125D01*
Y185321D01*
X205752Y184890D01*
X205378Y185378D01*
X203803Y186586D01*
X201968Y187346D01*
X201270Y187438D01*
Y180000D01*
Y172562D01*
X201968Y172654D01*
X203803Y173414D01*
X205378Y174622D01*
X205752Y175110D01*
X207022Y174679D01*
Y157875D01*
X206975Y157775D01*
X206959Y157369D01*
X206918Y157031D01*
X206849Y156704D01*
X206754Y156386D01*
X206630Y156074D01*
X206477Y155766D01*
X206293Y155460D01*
X206076Y155156D01*
X205825Y154854D01*
X205553Y154570D01*
X205480Y154520D01*
X204094Y152446D01*
X203607Y150000D01*
X204094Y147554D01*
X205480Y145480D01*
X205553Y145430D01*
X205825Y145146D01*
X206076Y144844D01*
X206293Y144540D01*
X206477Y144234D01*
X206630Y143926D01*
X206754Y143614D01*
X206849Y143296D01*
X206918Y142969D01*
X206959Y142631D01*
X206975Y142226D01*
X207022Y142125D01*
Y135321D01*
X205752Y134890D01*
X205378Y135378D01*
X203803Y136586D01*
X201968Y137346D01*
X201270Y137438D01*
Y130000D01*
Y122562D01*
X201968Y122654D01*
X203803Y123414D01*
X205378Y124622D01*
X205752Y125110D01*
X207022Y124679D01*
Y89034D01*
X203573Y85585D01*
X203477Y85552D01*
X203092Y85211D01*
X202714Y84948D01*
X202275Y84707D01*
X201769Y84491D01*
X201195Y84303D01*
X200551Y84146D01*
X199856Y84025D01*
X198188Y83885D01*
X197259Y83874D01*
X197189Y83844D01*
X194911Y83544D01*
X192777Y82661D01*
X190945Y81255D01*
X189539Y79423D01*
X188656Y77289D01*
X188354Y75000D01*
X188656Y72711D01*
X189539Y70577D01*
X190945Y68745D01*
X192777Y67339D01*
X194911Y66456D01*
X197200Y66154D01*
X199489Y66456D01*
X201623Y67339D01*
X203455Y68745D01*
X204861Y70577D01*
X205744Y72711D01*
X206044Y74989D01*
X206074Y75059D01*
X206085Y76005D01*
X206135Y76856D01*
X206222Y77638D01*
X206346Y78351D01*
X206503Y78995D01*
X206691Y79569D01*
X206908Y80075D01*
X207148Y80514D01*
X207411Y80892D01*
X207752Y81277D01*
X207785Y81373D01*
X212106Y85694D01*
X212752Y86660D01*
X212978Y87800D01*
Y127111D01*
X213119Y127167D01*
X214248Y127322D01*
X215480Y125480D01*
X215553Y125430D01*
X215825Y125146D01*
X216076Y124844D01*
X216293Y124540D01*
X216477Y124234D01*
X216630Y123926D01*
X216754Y123614D01*
X216849Y123296D01*
X216918Y122969D01*
X216959Y122631D01*
X216975Y122226D01*
X217022Y122125D01*
Y81774D01*
X216345Y81255D01*
X214939Y79423D01*
X214056Y77289D01*
X213754Y75000D01*
X214056Y72711D01*
X214939Y70577D01*
X216345Y68745D01*
X218177Y67339D01*
X220311Y66456D01*
X222600Y66154D01*
X224889Y66456D01*
X227023Y67339D01*
X228855Y68745D01*
X230261Y70577D01*
X231144Y72711D01*
X231446Y75000D01*
X231144Y77289D01*
X230261Y79423D01*
X228855Y81255D01*
X227023Y82661D01*
X224889Y83544D01*
X222978Y83796D01*
Y122125D01*
X223025Y122225D01*
X223041Y122631D01*
X223082Y122969D01*
X223151Y123296D01*
X223246Y123614D01*
X223370Y123926D01*
X223523Y124234D01*
X223707Y124540D01*
X223924Y124844D01*
X224175Y125146D01*
X224447Y125430D01*
X224520Y125480D01*
X225752Y127322D01*
X226881Y127167D01*
X227022Y127111D01*
Y93000D01*
X227248Y91860D01*
X227894Y90894D01*
X237415Y81373D01*
X237448Y81277D01*
X237789Y80892D01*
X238052Y80514D01*
X238293Y80075D01*
X238509Y79569D01*
X238697Y78995D01*
X238854Y78351D01*
X238975Y77656D01*
X239115Y75988D01*
X239126Y75059D01*
X239156Y74989D01*
X239456Y72711D01*
X240339Y70577D01*
X241745Y68745D01*
X243577Y67339D01*
X245711Y66456D01*
X248000Y66154D01*
X250289Y66456D01*
X252423Y67339D01*
X254255Y68745D01*
X255661Y70577D01*
X256544Y72711D01*
X256846Y75000D01*
X256544Y77289D01*
X255661Y79423D01*
X254255Y81255D01*
X252423Y82661D01*
X250289Y83544D01*
X248011Y83844D01*
X247941Y83874D01*
X246995Y83885D01*
X246144Y83935D01*
X245362Y84022D01*
X244649Y84146D01*
X244005Y84303D01*
X243431Y84491D01*
X242925Y84707D01*
X242486Y84948D01*
X242108Y85211D01*
X241723Y85552D01*
X241627Y85585D01*
X232978Y94234D01*
Y124679D01*
X234248Y125110D01*
X234622Y124622D01*
X236197Y123414D01*
X238032Y122654D01*
X238730Y122562D01*
Y130000D01*
Y137438D01*
X238032Y137346D01*
X236197Y136586D01*
X234622Y135378D01*
X234248Y134890D01*
X232978Y135321D01*
Y142125D01*
X233025Y142225D01*
X233041Y142631D01*
X233082Y142969D01*
X233151Y143296D01*
X233246Y143614D01*
X233370Y143926D01*
X233523Y144234D01*
X233707Y144540D01*
X233924Y144844D01*
X234175Y145146D01*
X234447Y145430D01*
X234520Y145480D01*
X235906Y147554D01*
X236393Y150000D01*
X235906Y152446D01*
X234520Y154520D01*
X234447Y154570D01*
X234175Y154854D01*
X233924Y155156D01*
X233707Y155460D01*
X233523Y155766D01*
X233370Y156074D01*
X233246Y156386D01*
X233151Y156704D01*
X233082Y157031D01*
X233041Y157369D01*
X233025Y157774D01*
X232978Y157875D01*
Y174679D01*
X234248Y175110D01*
X234622Y174622D01*
X236197Y173414D01*
X238032Y172654D01*
X238730Y172562D01*
Y180000D01*
Y187438D01*
X238032Y187346D01*
X236197Y186586D01*
X234622Y185378D01*
X234248Y184890D01*
X232978Y185321D01*
Y192125D01*
X233025Y192225D01*
X233041Y192631D01*
X233082Y192969D01*
X233151Y193296D01*
X233246Y193614D01*
X233370Y193926D01*
X233523Y194234D01*
X233707Y194540D01*
X233924Y194844D01*
X234175Y195146D01*
X234447Y195431D01*
X234520Y195480D01*
X235906Y197554D01*
X236393Y200000D01*
X235906Y202446D01*
X234520Y204520D01*
X232446Y205906D01*
X230000Y206393D01*
D02*
G37*
G36*
X261270Y187438D02*
Y181270D01*
X267438D01*
X267346Y181968D01*
X266586Y183803D01*
X265378Y185378D01*
X263803Y186586D01*
X261968Y187346D01*
X261270Y187438D01*
D02*
G37*
G36*
X267438Y178730D02*
X261270D01*
Y172562D01*
X261968Y172654D01*
X263803Y173414D01*
X265378Y174622D01*
X266586Y176197D01*
X267346Y178032D01*
X267438Y178730D01*
D02*
G37*
G36*
X280000Y186393D02*
X277554Y185906D01*
X275480Y184520D01*
X274094Y182446D01*
X273607Y180000D01*
X274094Y177554D01*
X275480Y175480D01*
X275553Y175431D01*
X275825Y175146D01*
X276076Y174844D01*
X276293Y174540D01*
X276477Y174234D01*
X276630Y173926D01*
X276754Y173614D01*
X276849Y173296D01*
X276918Y172969D01*
X276959Y172631D01*
X276975Y172225D01*
X277022Y172125D01*
Y155321D01*
X275752Y154890D01*
X275378Y155378D01*
X273803Y156586D01*
X271968Y157346D01*
X271270Y157438D01*
Y150000D01*
Y142562D01*
X271968Y142654D01*
X273803Y143414D01*
X275378Y144622D01*
X275752Y145110D01*
X277022Y144679D01*
Y137875D01*
X276975Y137775D01*
X276959Y137369D01*
X276918Y137031D01*
X276849Y136704D01*
X276754Y136386D01*
X276630Y136074D01*
X276477Y135766D01*
X276293Y135460D01*
X276076Y135156D01*
X275825Y134854D01*
X275553Y134570D01*
X275480Y134520D01*
X274094Y132446D01*
X273607Y130000D01*
X274094Y127554D01*
X275480Y125480D01*
X275553Y125430D01*
X275825Y125146D01*
X276076Y124844D01*
X276293Y124540D01*
X276477Y124234D01*
X276630Y123926D01*
X276754Y123614D01*
X276849Y123296D01*
X276918Y122969D01*
X276959Y122631D01*
X276975Y122226D01*
X277022Y122125D01*
Y93800D01*
X277248Y92660D01*
X277894Y91694D01*
X288215Y81373D01*
X288248Y81277D01*
X288589Y80892D01*
X288852Y80514D01*
X289093Y80075D01*
X289309Y79569D01*
X289497Y78995D01*
X289654Y78351D01*
X289775Y77656D01*
X289915Y75988D01*
X289926Y75059D01*
X289956Y74989D01*
X290256Y72711D01*
X291139Y70577D01*
X292545Y68745D01*
X294377Y67339D01*
X296511Y66456D01*
X298800Y66154D01*
X301089Y66456D01*
X303223Y67339D01*
X305055Y68745D01*
X306461Y70577D01*
X307344Y72711D01*
X307646Y75000D01*
X307344Y77289D01*
X306461Y79423D01*
X305055Y81255D01*
X303223Y82661D01*
X301089Y83544D01*
X298811Y83844D01*
X298741Y83874D01*
X297795Y83885D01*
X296944Y83935D01*
X296162Y84022D01*
X295449Y84146D01*
X294805Y84303D01*
X294231Y84491D01*
X293725Y84707D01*
X293286Y84948D01*
X292908Y85211D01*
X292523Y85552D01*
X292427Y85585D01*
X282978Y95034D01*
Y122125D01*
X283025Y122225D01*
X283041Y122631D01*
X283082Y122969D01*
X283151Y123296D01*
X283246Y123614D01*
X283370Y123926D01*
X283523Y124234D01*
X283707Y124540D01*
X283924Y124844D01*
X284175Y125146D01*
X284447Y125430D01*
X284520Y125480D01*
X285906Y127554D01*
X286393Y130000D01*
X285906Y132446D01*
X284520Y134520D01*
X284447Y134570D01*
X284175Y134854D01*
X283924Y135156D01*
X283707Y135460D01*
X283523Y135766D01*
X283370Y136074D01*
X283246Y136386D01*
X283151Y136704D01*
X283082Y137031D01*
X283041Y137369D01*
X283025Y137774D01*
X282978Y137875D01*
Y144679D01*
X284248Y145110D01*
X284622Y144622D01*
X286197Y143414D01*
X288032Y142654D01*
X288730Y142562D01*
Y150000D01*
Y157438D01*
X288032Y157346D01*
X286197Y156586D01*
X284622Y155378D01*
X284248Y154890D01*
X282978Y155321D01*
Y172125D01*
X283025Y172225D01*
X283041Y172631D01*
X283082Y172969D01*
X283151Y173296D01*
X283246Y173614D01*
X283370Y173926D01*
X283523Y174234D01*
X283707Y174540D01*
X283924Y174844D01*
X284175Y175146D01*
X284447Y175431D01*
X284520Y175480D01*
X285906Y177554D01*
X286393Y180000D01*
X285906Y182446D01*
X284520Y184520D01*
X282446Y185906D01*
X280000Y186393D01*
D02*
G37*
G36*
X268730Y157438D02*
X268032Y157346D01*
X266197Y156586D01*
X264622Y155378D01*
X263414Y153802D01*
X262654Y151968D01*
X262562Y151270D01*
X268730D01*
Y157438D01*
D02*
G37*
G36*
Y148730D02*
X262562D01*
X262654Y148032D01*
X263414Y146198D01*
X264622Y144622D01*
X266197Y143414D01*
X268032Y142654D01*
X268730Y142562D01*
Y148730D01*
D02*
G37*
G36*
X261270Y137438D02*
Y131270D01*
X267438D01*
X267346Y131968D01*
X266586Y133802D01*
X265378Y135378D01*
X263803Y136586D01*
X261968Y137346D01*
X261270Y137438D01*
D02*
G37*
G36*
X267438Y128730D02*
X261270D01*
Y122562D01*
X261968Y122654D01*
X263803Y123414D01*
X265378Y124622D01*
X266586Y126198D01*
X267346Y128032D01*
X267438Y128730D01*
D02*
G37*
G36*
X325470Y24959D02*
Y16270D01*
X334159D01*
X333982Y17621D01*
X332970Y20063D01*
X331361Y22161D01*
X329263Y23770D01*
X326821Y24782D01*
X325470Y24959D01*
D02*
G37*
G36*
X223870D02*
Y16270D01*
X232559D01*
X232382Y17621D01*
X231370Y20063D01*
X229761Y22161D01*
X227663Y23770D01*
X225221Y24782D01*
X223870Y24959D01*
D02*
G37*
G36*
X96870D02*
Y16270D01*
X105559D01*
X105382Y17621D01*
X104370Y20063D01*
X102761Y22161D01*
X100663Y23770D01*
X98221Y24782D01*
X96870Y24959D01*
D02*
G37*
G36*
X350870D02*
Y16270D01*
X359559D01*
X359382Y17621D01*
X358370Y20063D01*
X356761Y22161D01*
X354663Y23770D01*
X352221Y24782D01*
X350870Y24959D01*
D02*
G37*
G36*
X300070D02*
Y16270D01*
X308759D01*
X308582Y17621D01*
X307570Y20063D01*
X305961Y22161D01*
X303863Y23770D01*
X301421Y24782D01*
X300070Y24959D01*
D02*
G37*
G36*
X249270D02*
Y16270D01*
X257959D01*
X257782Y17621D01*
X256770Y20063D01*
X255161Y22161D01*
X253063Y23770D01*
X250621Y24782D01*
X249270Y24959D01*
D02*
G37*
G36*
X198470D02*
Y16270D01*
X207159D01*
X206982Y17621D01*
X205970Y20063D01*
X204361Y22161D01*
X202263Y23770D01*
X199821Y24782D01*
X198470Y24959D01*
D02*
G37*
G36*
X173070D02*
Y16270D01*
X181759D01*
X181582Y17621D01*
X180570Y20063D01*
X178961Y22161D01*
X176863Y23770D01*
X174421Y24782D01*
X173070Y24959D01*
D02*
G37*
G36*
X122270D02*
Y16270D01*
X130959D01*
X130782Y17621D01*
X129770Y20063D01*
X128161Y22161D01*
X126063Y23770D01*
X123621Y24782D01*
X122270Y24959D01*
D02*
G37*
G36*
X71470D02*
Y16270D01*
X80159D01*
X79982Y17621D01*
X78970Y20063D01*
X77361Y22161D01*
X75263Y23770D01*
X72821Y24782D01*
X71470Y24959D01*
D02*
G37*
G36*
X385040Y25040D02*
X376270D01*
Y16270D01*
X385040D01*
Y25040D01*
D02*
G37*
G36*
X274670Y24959D02*
Y16270D01*
X283359D01*
X283182Y17621D01*
X282170Y20063D01*
X280561Y22161D01*
X278463Y23770D01*
X276021Y24782D01*
X274670Y24959D01*
D02*
G37*
G36*
X147670D02*
Y16270D01*
X156359D01*
X156182Y17621D01*
X155170Y20063D01*
X153561Y22161D01*
X151463Y23770D01*
X149021Y24782D01*
X147670Y24959D01*
D02*
G37*
G36*
X322930Y24959D02*
X321579Y24782D01*
X319137Y23770D01*
X317039Y22161D01*
X315430Y20063D01*
X314418Y17621D01*
X314241Y16270D01*
X322930D01*
Y24959D01*
D02*
G37*
G36*
X221330D02*
X219979Y24782D01*
X217537Y23770D01*
X215439Y22161D01*
X213830Y20063D01*
X212818Y17621D01*
X212641Y16270D01*
X221330D01*
Y24959D01*
D02*
G37*
G36*
X94330D02*
X92979Y24782D01*
X90537Y23770D01*
X88439Y22161D01*
X86830Y20063D01*
X85818Y17621D01*
X85641Y16270D01*
X94330D01*
Y24959D01*
D02*
G37*
G36*
X348330D02*
X346979Y24782D01*
X344537Y23770D01*
X342439Y22161D01*
X340830Y20063D01*
X339818Y17621D01*
X339641Y16270D01*
X348330D01*
Y24959D01*
D02*
G37*
G36*
X297530D02*
X296179Y24782D01*
X293737Y23770D01*
X291639Y22161D01*
X290030Y20063D01*
X289018Y17621D01*
X288841Y16270D01*
X297530D01*
Y24959D01*
D02*
G37*
G36*
X246730D02*
X245379Y24782D01*
X242937Y23770D01*
X240839Y22161D01*
X239230Y20063D01*
X238218Y17621D01*
X238041Y16270D01*
X246730D01*
Y24959D01*
D02*
G37*
G36*
X195930D02*
X194579Y24782D01*
X192137Y23770D01*
X190039Y22161D01*
X188430Y20063D01*
X187418Y17621D01*
X187241Y16270D01*
X195930D01*
Y24959D01*
D02*
G37*
G36*
X170530D02*
X169179Y24782D01*
X166737Y23770D01*
X164639Y22161D01*
X163030Y20063D01*
X162018Y17621D01*
X161841Y16270D01*
X170530D01*
Y24959D01*
D02*
G37*
G36*
X119730D02*
X118379Y24782D01*
X115937Y23770D01*
X113839Y22161D01*
X112230Y20063D01*
X111218Y17621D01*
X111041Y16270D01*
X119730D01*
Y24959D01*
D02*
G37*
G36*
X68930D02*
X67579Y24782D01*
X65137Y23770D01*
X63039Y22161D01*
X61430Y20063D01*
X60418Y17621D01*
X60241Y16270D01*
X68930D01*
Y24959D01*
D02*
G37*
G36*
X272130D02*
X270779Y24782D01*
X268337Y23770D01*
X266239Y22161D01*
X264630Y20063D01*
X263618Y17621D01*
X263441Y16270D01*
X272130D01*
Y24959D01*
D02*
G37*
G36*
X145130D02*
X143779Y24782D01*
X141337Y23770D01*
X139239Y22161D01*
X137630Y20063D01*
X136618Y17621D01*
X136441Y16270D01*
X145130D01*
Y24959D01*
D02*
G37*
G36*
X373730Y25040D02*
X364960D01*
Y16270D01*
X373730D01*
Y25040D01*
D02*
G37*
G36*
X348330Y13730D02*
X339641D01*
X339818Y12379D01*
X340830Y9937D01*
X342439Y7839D01*
X344537Y6230D01*
X346979Y5218D01*
X348330Y5041D01*
Y13730D01*
D02*
G37*
G36*
X322930D02*
X314241D01*
X314418Y12379D01*
X315430Y9937D01*
X317039Y7839D01*
X319137Y6230D01*
X321579Y5218D01*
X322930Y5041D01*
Y13730D01*
D02*
G37*
G36*
X297530D02*
X288841D01*
X289018Y12379D01*
X290030Y9937D01*
X291639Y7839D01*
X293737Y6230D01*
X296179Y5218D01*
X297530Y5041D01*
Y13730D01*
D02*
G37*
G36*
X272130D02*
X263441D01*
X263618Y12379D01*
X264630Y9937D01*
X266239Y7839D01*
X268337Y6230D01*
X270779Y5218D01*
X272130Y5041D01*
Y13730D01*
D02*
G37*
G36*
X246730D02*
X238041D01*
X238218Y12379D01*
X239230Y9937D01*
X240839Y7839D01*
X242937Y6230D01*
X245379Y5218D01*
X246730Y5041D01*
Y13730D01*
D02*
G37*
G36*
X221330D02*
X212641D01*
X212818Y12379D01*
X213830Y9937D01*
X215439Y7839D01*
X217537Y6230D01*
X219979Y5218D01*
X221330Y5041D01*
Y13730D01*
D02*
G37*
G36*
X195930D02*
X187241D01*
X187418Y12379D01*
X188430Y9937D01*
X190039Y7839D01*
X192137Y6230D01*
X194579Y5218D01*
X195930Y5041D01*
Y13730D01*
D02*
G37*
G36*
X170530D02*
X161841D01*
X162018Y12379D01*
X163030Y9937D01*
X164639Y7839D01*
X166737Y6230D01*
X169179Y5218D01*
X170530Y5041D01*
Y13730D01*
D02*
G37*
G36*
X145130D02*
X136441D01*
X136618Y12379D01*
X137630Y9937D01*
X139239Y7839D01*
X141337Y6230D01*
X143779Y5218D01*
X145130Y5041D01*
Y13730D01*
D02*
G37*
G36*
X119730D02*
X111041D01*
X111218Y12379D01*
X112230Y9937D01*
X113839Y7839D01*
X115937Y6230D01*
X118379Y5218D01*
X119730Y5041D01*
Y13730D01*
D02*
G37*
G36*
X94330D02*
X85641D01*
X85818Y12379D01*
X86830Y9937D01*
X88439Y7839D01*
X90537Y6230D01*
X92979Y5218D01*
X94330Y5041D01*
Y13730D01*
D02*
G37*
G36*
X68930D02*
X60241D01*
X60418Y12379D01*
X61430Y9937D01*
X63039Y7839D01*
X65137Y6230D01*
X67579Y5218D01*
X68930Y5041D01*
Y13730D01*
D02*
G37*
G36*
X359559D02*
X350870D01*
Y5041D01*
X352221Y5218D01*
X354663Y6230D01*
X356761Y7839D01*
X358370Y9937D01*
X359382Y12379D01*
X359559Y13730D01*
D02*
G37*
G36*
X334159D02*
X325470D01*
Y5041D01*
X326821Y5218D01*
X329263Y6230D01*
X331361Y7839D01*
X332970Y9937D01*
X333982Y12379D01*
X334159Y13730D01*
D02*
G37*
G36*
X308759D02*
X300070D01*
Y5041D01*
X301421Y5218D01*
X303863Y6230D01*
X305961Y7839D01*
X307570Y9937D01*
X308582Y12379D01*
X308759Y13730D01*
D02*
G37*
G36*
X283359D02*
X274670D01*
Y5041D01*
X276021Y5218D01*
X278463Y6230D01*
X280561Y7839D01*
X282170Y9937D01*
X283182Y12379D01*
X283359Y13730D01*
D02*
G37*
G36*
X257959D02*
X249270D01*
Y5041D01*
X250621Y5218D01*
X253063Y6230D01*
X255161Y7839D01*
X256770Y9937D01*
X257782Y12379D01*
X257959Y13730D01*
D02*
G37*
G36*
X232559D02*
X223870D01*
Y5041D01*
X225221Y5218D01*
X227663Y6230D01*
X229761Y7839D01*
X231370Y9937D01*
X232382Y12379D01*
X232559Y13730D01*
D02*
G37*
G36*
X207159D02*
X198470D01*
Y5041D01*
X199821Y5218D01*
X202263Y6230D01*
X204361Y7839D01*
X205970Y9937D01*
X206982Y12379D01*
X207159Y13730D01*
D02*
G37*
G36*
X181759D02*
X173070D01*
Y5041D01*
X174421Y5218D01*
X176863Y6230D01*
X178961Y7839D01*
X180570Y9937D01*
X181582Y12379D01*
X181759Y13730D01*
D02*
G37*
G36*
X156359D02*
X147670D01*
Y5041D01*
X149021Y5218D01*
X151463Y6230D01*
X153561Y7839D01*
X155170Y9937D01*
X156182Y12379D01*
X156359Y13730D01*
D02*
G37*
G36*
X130959D02*
X122270D01*
Y5041D01*
X123621Y5218D01*
X126063Y6230D01*
X128161Y7839D01*
X129770Y9937D01*
X130782Y12379D01*
X130959Y13730D01*
D02*
G37*
G36*
X105559D02*
X96870D01*
Y5041D01*
X98221Y5218D01*
X100663Y6230D01*
X102761Y7839D01*
X104370Y9937D01*
X105382Y12379D01*
X105559Y13730D01*
D02*
G37*
G36*
X80159D02*
X71470D01*
Y5041D01*
X72821Y5218D01*
X75263Y6230D01*
X77361Y7839D01*
X78970Y9937D01*
X79982Y12379D01*
X80159Y13730D01*
D02*
G37*
G36*
X385040D02*
X376270D01*
Y4960D01*
X385040D01*
Y13730D01*
D02*
G37*
G36*
X373730D02*
X364960D01*
Y4960D01*
X373730D01*
Y13730D01*
D02*
G37*
%LPD*%
G36*
X253149Y196062D02*
X252834Y195683D01*
X252557Y195295D01*
X252317Y194895D01*
X252113Y194486D01*
X251947Y194066D01*
X251817Y193635D01*
X251725Y193194D01*
X251670Y192743D01*
X251651Y192280D01*
X248349D01*
X248330Y192743D01*
X248275Y193194D01*
X248183Y193635D01*
X248053Y194066D01*
X247887Y194486D01*
X247683Y194895D01*
X247443Y195295D01*
X247166Y195683D01*
X246851Y196062D01*
X246500Y196429D01*
X253500D01*
X253149Y196062D01*
D02*
G37*
G36*
X251670Y157257D02*
X251725Y156806D01*
X251817Y156365D01*
X251947Y155934D01*
X252113Y155514D01*
X252317Y155105D01*
X252557Y154705D01*
X252834Y154317D01*
X253149Y153938D01*
X253500Y153571D01*
X246500D01*
X246851Y153938D01*
X247166Y154317D01*
X247443Y154705D01*
X247683Y155105D01*
X247887Y155514D01*
X248053Y155934D01*
X248183Y156365D01*
X248275Y156806D01*
X248330Y157257D01*
X248349Y157720D01*
X251651D01*
X251670Y157257D01*
D02*
G37*
G36*
X253149Y146062D02*
X252834Y145683D01*
X252557Y145295D01*
X252317Y144895D01*
X252113Y144486D01*
X251947Y144066D01*
X251817Y143635D01*
X251725Y143194D01*
X251670Y142743D01*
X251651Y142280D01*
X248349D01*
X248330Y142743D01*
X248275Y143194D01*
X248183Y143635D01*
X248053Y144066D01*
X247887Y144486D01*
X247683Y144895D01*
X247443Y145295D01*
X247166Y145683D01*
X246851Y146062D01*
X246500Y146429D01*
X253500D01*
X253149Y146062D01*
D02*
G37*
G36*
X266657Y84129D02*
X267160Y83778D01*
X267723Y83470D01*
X268346Y83204D01*
X269027Y82980D01*
X269768Y82799D01*
X270568Y82661D01*
X271428Y82564D01*
X272347Y82511D01*
X273325Y82500D01*
X265900Y75075D01*
X265889Y76053D01*
X265739Y77832D01*
X265601Y78632D01*
X265420Y79373D01*
X265196Y80055D01*
X264930Y80677D01*
X264622Y81240D01*
X264271Y81743D01*
X263877Y82188D01*
X266212Y84523D01*
X266657Y84129D01*
D02*
G37*
G36*
X193149Y196062D02*
X192834Y195683D01*
X192557Y195295D01*
X192317Y194895D01*
X192113Y194486D01*
X191947Y194066D01*
X191817Y193635D01*
X191725Y193194D01*
X191670Y192743D01*
X191651Y192280D01*
X188349D01*
X188330Y192743D01*
X188275Y193194D01*
X188183Y193635D01*
X188053Y194066D01*
X187887Y194486D01*
X187683Y194895D01*
X187443Y195295D01*
X187166Y195683D01*
X186851Y196062D01*
X186500Y196429D01*
X193500D01*
X193149Y196062D01*
D02*
G37*
G36*
X191670Y157257D02*
X191725Y156806D01*
X191817Y156365D01*
X191947Y155934D01*
X192113Y155514D01*
X192317Y155105D01*
X192557Y154705D01*
X192834Y154317D01*
X193149Y153938D01*
X193500Y153571D01*
X186500D01*
X186851Y153938D01*
X187166Y154317D01*
X187443Y154705D01*
X187683Y155105D01*
X187887Y155514D01*
X188053Y155934D01*
X188183Y156365D01*
X188275Y156806D01*
X188330Y157257D01*
X188349Y157720D01*
X191651D01*
X191670Y157257D01*
D02*
G37*
G36*
X193149Y146062D02*
X192834Y145683D01*
X192557Y145295D01*
X192317Y144895D01*
X192113Y144486D01*
X191947Y144066D01*
X191817Y143635D01*
X191725Y143194D01*
X191670Y142743D01*
X191651Y142280D01*
X188349D01*
X188330Y142743D01*
X188275Y143194D01*
X188183Y143635D01*
X188053Y144066D01*
X187887Y144486D01*
X187683Y144895D01*
X187443Y145295D01*
X187166Y145683D01*
X186851Y146062D01*
X186500Y146429D01*
X193500D01*
X193149Y146062D01*
D02*
G37*
G36*
X181323Y82188D02*
X180929Y81743D01*
X180578Y81240D01*
X180270Y80677D01*
X180004Y80055D01*
X179780Y79373D01*
X179599Y78632D01*
X179461Y77832D01*
X179364Y76972D01*
X179311Y76053D01*
X179300Y75075D01*
X171875Y82500D01*
X172853Y82511D01*
X174632Y82661D01*
X175432Y82799D01*
X176173Y82980D01*
X176854Y83204D01*
X177477Y83470D01*
X178040Y83778D01*
X178543Y84129D01*
X178988Y84523D01*
X181323Y82188D01*
D02*
G37*
G36*
X173149Y196062D02*
X172834Y195683D01*
X172557Y195295D01*
X172317Y194895D01*
X172113Y194486D01*
X171947Y194066D01*
X171817Y193635D01*
X171725Y193194D01*
X171670Y192743D01*
X171651Y192280D01*
X168349D01*
X168330Y192743D01*
X168275Y193194D01*
X168183Y193635D01*
X168053Y194066D01*
X167887Y194486D01*
X167683Y194895D01*
X167443Y195295D01*
X167166Y195683D01*
X166851Y196062D01*
X166500Y196429D01*
X173500D01*
X173149Y196062D01*
D02*
G37*
G36*
X153149D02*
X152834Y195683D01*
X152557Y195295D01*
X152317Y194895D01*
X152113Y194486D01*
X151947Y194066D01*
X151817Y193635D01*
X151725Y193194D01*
X151670Y192743D01*
X151651Y192280D01*
X148349D01*
X148330Y192743D01*
X148275Y193194D01*
X148183Y193635D01*
X148053Y194066D01*
X147887Y194486D01*
X147683Y194895D01*
X147443Y195295D01*
X147166Y195683D01*
X146851Y196062D01*
X146500Y196429D01*
X153500D01*
X153149Y196062D01*
D02*
G37*
G36*
X163149Y176062D02*
X162834Y175683D01*
X162557Y175295D01*
X162317Y174895D01*
X162113Y174486D01*
X161947Y174066D01*
X161817Y173635D01*
X161725Y173194D01*
X161670Y172743D01*
X161651Y172280D01*
X158349D01*
X158330Y172743D01*
X158275Y173194D01*
X158183Y173635D01*
X158053Y174066D01*
X157887Y174486D01*
X157683Y174895D01*
X157443Y175295D01*
X157166Y175683D01*
X156851Y176062D01*
X156500Y176429D01*
X163500D01*
X163149Y176062D01*
D02*
G37*
G36*
X143149D02*
X142834Y175683D01*
X142557Y175295D01*
X142317Y174895D01*
X142113Y174486D01*
X141947Y174066D01*
X141817Y173635D01*
X141725Y173194D01*
X141670Y172743D01*
X141651Y172280D01*
X138349D01*
X138330Y172743D01*
X138275Y173194D01*
X138183Y173635D01*
X138053Y174066D01*
X137887Y174486D01*
X137683Y174895D01*
X137443Y175295D01*
X137166Y175683D01*
X136851Y176062D01*
X136500Y176429D01*
X143500D01*
X143149Y176062D01*
D02*
G37*
G36*
X171670Y157257D02*
X171725Y156806D01*
X171817Y156365D01*
X171947Y155934D01*
X172113Y155514D01*
X172317Y155105D01*
X172557Y154705D01*
X172834Y154317D01*
X173149Y153938D01*
X173500Y153571D01*
X166500D01*
X166851Y153938D01*
X167166Y154317D01*
X167443Y154705D01*
X167683Y155105D01*
X167887Y155514D01*
X168053Y155934D01*
X168183Y156365D01*
X168275Y156806D01*
X168330Y157257D01*
X168349Y157720D01*
X171651D01*
X171670Y157257D01*
D02*
G37*
G36*
X151670D02*
X151725Y156806D01*
X151817Y156365D01*
X151947Y155934D01*
X152113Y155514D01*
X152317Y155105D01*
X152557Y154705D01*
X152834Y154317D01*
X153149Y153938D01*
X153500Y153571D01*
X146500D01*
X146851Y153938D01*
X147166Y154317D01*
X147443Y154705D01*
X147683Y155105D01*
X147887Y155514D01*
X148053Y155934D01*
X148183Y156365D01*
X148275Y156806D01*
X148330Y157257D01*
X148349Y157720D01*
X151651D01*
X151670Y157257D01*
D02*
G37*
G36*
X173149Y146062D02*
X172834Y145683D01*
X172557Y145295D01*
X172317Y144895D01*
X172113Y144486D01*
X171947Y144066D01*
X171817Y143635D01*
X171725Y143194D01*
X171670Y142743D01*
X171651Y142280D01*
X168349D01*
X168330Y142743D01*
X168275Y143194D01*
X168183Y143635D01*
X168053Y144066D01*
X167887Y144486D01*
X167683Y144895D01*
X167443Y145295D01*
X167166Y145683D01*
X166851Y146062D01*
X166500Y146429D01*
X173500D01*
X173149Y146062D01*
D02*
G37*
G36*
X153149D02*
X152834Y145683D01*
X152557Y145295D01*
X152317Y144895D01*
X152113Y144486D01*
X151947Y144066D01*
X151817Y143635D01*
X151725Y143194D01*
X151670Y142743D01*
X151651Y142280D01*
X148349D01*
X148330Y142743D01*
X148275Y143194D01*
X148183Y143635D01*
X148053Y144066D01*
X147887Y144486D01*
X147683Y144895D01*
X147443Y145295D01*
X147166Y145683D01*
X146851Y146062D01*
X146500Y146429D01*
X153500D01*
X153149Y146062D01*
D02*
G37*
G36*
X161670Y137257D02*
X161725Y136806D01*
X161817Y136365D01*
X161947Y135934D01*
X162113Y135514D01*
X162317Y135105D01*
X162557Y134705D01*
X162834Y134317D01*
X163149Y133938D01*
X163500Y133571D01*
X156500D01*
X156851Y133938D01*
X157166Y134317D01*
X157443Y134705D01*
X157683Y135105D01*
X157887Y135514D01*
X158053Y135934D01*
X158183Y136365D01*
X158275Y136806D01*
X158330Y137257D01*
X158349Y137720D01*
X161651D01*
X161670Y137257D01*
D02*
G37*
G36*
X141670D02*
X141725Y136806D01*
X141817Y136365D01*
X141947Y135934D01*
X142113Y135514D01*
X142317Y135105D01*
X142557Y134705D01*
X142834Y134317D01*
X143149Y133938D01*
X143500Y133571D01*
X136500D01*
X136851Y133938D01*
X137166Y134317D01*
X137443Y134705D01*
X137683Y135105D01*
X137887Y135514D01*
X138053Y135934D01*
X138183Y136365D01*
X138275Y136806D01*
X138330Y137257D01*
X138349Y137720D01*
X141651D01*
X141670Y137257D01*
D02*
G37*
G36*
X136429Y126500D02*
X136062Y126851D01*
X135683Y127166D01*
X135295Y127443D01*
X134895Y127683D01*
X134486Y127887D01*
X134066Y128053D01*
X133635Y128183D01*
X133194Y128275D01*
X132743Y128330D01*
X132280Y128349D01*
Y131651D01*
X132743Y131670D01*
X133194Y131725D01*
X133635Y131817D01*
X134066Y131947D01*
X134486Y132113D01*
X134895Y132317D01*
X135295Y132557D01*
X135683Y132834D01*
X136062Y133149D01*
X136429Y133500D01*
Y126500D01*
D02*
G37*
G36*
X163149Y126062D02*
X162834Y125683D01*
X162557Y125295D01*
X162317Y124895D01*
X162113Y124486D01*
X161947Y124066D01*
X161817Y123635D01*
X161725Y123194D01*
X161670Y122743D01*
X161651Y122280D01*
X158349D01*
X158330Y122743D01*
X158275Y123194D01*
X158183Y123635D01*
X158053Y124066D01*
X157887Y124486D01*
X157683Y124895D01*
X157443Y125295D01*
X157166Y125683D01*
X156851Y126062D01*
X156500Y126429D01*
X163500D01*
X163149Y126062D01*
D02*
G37*
G36*
X105471Y81575D02*
X105091Y81148D01*
X104743Y80656D01*
X104426Y80099D01*
X104140Y79478D01*
X103885Y78793D01*
X103661Y78042D01*
X103468Y77228D01*
X103175Y75404D01*
X103076Y74395D01*
X96354Y82462D01*
X97296Y82390D01*
X98184Y82372D01*
X99019Y82406D01*
X99799Y82493D01*
X100526Y82633D01*
X101199Y82826D01*
X101819Y83072D01*
X102384Y83371D01*
X102896Y83723D01*
X103354Y84127D01*
X105471Y81575D01*
D02*
G37*
G36*
X80004Y82470D02*
X79348Y81790D01*
X78314Y80572D01*
X77937Y80034D01*
X77654Y79543D01*
X77464Y79100D01*
X77368Y78704D01*
X77365Y78355D01*
X77455Y78054D01*
X77639Y77800D01*
X73000Y82439D01*
X73254Y82255D01*
X73555Y82165D01*
X73904Y82168D01*
X74300Y82264D01*
X74743Y82454D01*
X75234Y82738D01*
X75772Y83114D01*
X76357Y83584D01*
X77670Y84804D01*
X80004Y82470D01*
D02*
G37*
G36*
X155923Y82188D02*
X155529Y81743D01*
X155178Y81240D01*
X154870Y80677D01*
X154604Y80055D01*
X154380Y79373D01*
X154199Y78632D01*
X154060Y77832D01*
X153964Y76972D01*
X153911Y76053D01*
X153900Y75075D01*
X146475Y82500D01*
X147453Y82511D01*
X149232Y82661D01*
X150032Y82799D01*
X150773Y82980D01*
X151454Y83204D01*
X152077Y83470D01*
X152640Y83778D01*
X153143Y84129D01*
X153588Y84523D01*
X155923Y82188D01*
D02*
G37*
G36*
X130523D02*
X130129Y81743D01*
X129778Y81240D01*
X129470Y80677D01*
X129204Y80055D01*
X128980Y79373D01*
X128799Y78632D01*
X128660Y77832D01*
X128564Y76972D01*
X128511Y76053D01*
X128500Y75075D01*
X121075Y82500D01*
X122053Y82511D01*
X123832Y82661D01*
X124632Y82799D01*
X125373Y82980D01*
X126054Y83204D01*
X126677Y83470D01*
X127240Y83778D01*
X127743Y84129D01*
X128188Y84523D01*
X130523Y82188D01*
D02*
G37*
G36*
X313438Y196339D02*
X313383Y196196D01*
X313334Y195999D01*
X313292Y195750D01*
X313227Y195091D01*
X313188Y194221D01*
X313175Y193137D01*
X306825D01*
X306822Y193706D01*
X306666Y195999D01*
X306617Y196196D01*
X306562Y196339D01*
X306500Y196429D01*
X313500D01*
X313438Y196339D01*
D02*
G37*
G36*
X333149Y196062D02*
X332834Y195683D01*
X332557Y195295D01*
X332317Y194895D01*
X332113Y194486D01*
X331947Y194066D01*
X331817Y193635D01*
X331725Y193194D01*
X331670Y192743D01*
X331651Y192280D01*
X328349D01*
X328330Y192743D01*
X328275Y193194D01*
X328183Y193635D01*
X328053Y194066D01*
X327887Y194486D01*
X327683Y194895D01*
X327443Y195295D01*
X327166Y195683D01*
X326851Y196062D01*
X326500Y196429D01*
X333500D01*
X333149Y196062D01*
D02*
G37*
G36*
X316429Y176500D02*
X316339Y176562D01*
X316196Y176617D01*
X315999Y176666D01*
X315750Y176708D01*
X315091Y176773D01*
X314221Y176812D01*
X313137Y176825D01*
Y183175D01*
X313706Y183178D01*
X315999Y183334D01*
X316196Y183383D01*
X316339Y183438D01*
X316429Y183500D01*
Y176500D01*
D02*
G37*
G36*
X306526Y183179D02*
X306863Y183175D01*
Y182843D01*
X307098Y182607D01*
X306863Y182370D01*
Y176825D01*
X306294Y176822D01*
X304001Y176666D01*
X303804Y176617D01*
X303661Y176562D01*
X303571Y176500D01*
Y181479D01*
X300050Y185000D01*
X300158Y185020D01*
X300298Y185082D01*
X300471Y185187D01*
X300678Y185333D01*
X301189Y185753D01*
X301832Y186341D01*
X302607Y187098D01*
X306526Y183179D01*
D02*
G37*
G36*
X323438Y176339D02*
X323383Y176196D01*
X323334Y175999D01*
X323292Y175750D01*
X323227Y175091D01*
X323188Y174221D01*
X323175Y173137D01*
X316825D01*
X316822Y173706D01*
X316666Y175999D01*
X316617Y176196D01*
X316562Y176339D01*
X316500Y176429D01*
X323500D01*
X323438Y176339D01*
D02*
G37*
G36*
X303438D02*
X303383Y176196D01*
X303334Y175999D01*
X303292Y175750D01*
X303227Y175091D01*
X303188Y174221D01*
X303175Y173137D01*
X296825D01*
X296822Y173706D01*
X296666Y175999D01*
X296617Y176196D01*
X296562Y176339D01*
X296500Y176429D01*
X303500D01*
X303438Y176339D01*
D02*
G37*
G36*
X331670Y157257D02*
X331725Y156806D01*
X331817Y156365D01*
X331947Y155934D01*
X332113Y155514D01*
X332317Y155105D01*
X332557Y154705D01*
X332834Y154317D01*
X333149Y153938D01*
X333500Y153571D01*
X326500D01*
X326851Y153938D01*
X327166Y154317D01*
X327443Y154705D01*
X327683Y155105D01*
X327887Y155514D01*
X328053Y155934D01*
X328183Y156365D01*
X328275Y156806D01*
X328330Y157257D01*
X328349Y157720D01*
X331651D01*
X331670Y157257D01*
D02*
G37*
G36*
X317098Y152607D02*
X316698Y152204D01*
X315187Y150471D01*
X315082Y150298D01*
X315020Y150157D01*
X315000Y150050D01*
X310050Y155000D01*
X310158Y155020D01*
X310298Y155082D01*
X310471Y155187D01*
X310678Y155333D01*
X311189Y155753D01*
X311832Y156341D01*
X312607Y157098D01*
X317098Y152607D01*
D02*
G37*
G36*
X335011Y149442D02*
X335056Y148952D01*
X335135Y148481D01*
X335247Y148029D01*
X335393Y147595D01*
X335573Y147181D01*
X335786Y146784D01*
X336032Y146407D01*
X336312Y146049D01*
X336626Y145709D01*
X334291Y143374D01*
X333951Y143688D01*
X333593Y143968D01*
X333215Y144214D01*
X332820Y144427D01*
X332405Y144607D01*
X331971Y144753D01*
X331519Y144865D01*
X331048Y144944D01*
X330558Y144989D01*
X330050Y145000D01*
X335000Y149950D01*
X335011Y149442D01*
D02*
G37*
G36*
X315020Y149843D02*
X315082Y149702D01*
X315187Y149529D01*
X315333Y149322D01*
X315753Y148811D01*
X316341Y148168D01*
X317098Y147393D01*
X312607Y142902D01*
X312204Y143302D01*
X310471Y144813D01*
X310298Y144918D01*
X310158Y144980D01*
X310050Y145000D01*
X315000Y149950D01*
X315020Y149843D01*
D02*
G37*
G36*
X323178Y136294D02*
X323334Y134001D01*
X323383Y133804D01*
X323438Y133661D01*
X323500Y133571D01*
X316500D01*
X316562Y133661D01*
X316617Y133804D01*
X316666Y134001D01*
X316708Y134250D01*
X316773Y134909D01*
X316812Y135779D01*
X316825Y136863D01*
X323175D01*
X323178Y136294D01*
D02*
G37*
G36*
X303178D02*
X303334Y134001D01*
X303383Y133804D01*
X303438Y133661D01*
X303500Y133571D01*
X296500D01*
X296562Y133661D01*
X296617Y133804D01*
X296666Y134001D01*
X296708Y134250D01*
X296773Y134909D01*
X296812Y135779D01*
X296825Y136863D01*
X303175D01*
X303178Y136294D01*
D02*
G37*
G36*
X316429Y126500D02*
X316339Y126562D01*
X316196Y126617D01*
X315999Y126666D01*
X315750Y126708D01*
X315091Y126773D01*
X314221Y126812D01*
X313137Y126825D01*
Y133175D01*
X313706Y133178D01*
X315999Y133334D01*
X316196Y133383D01*
X316339Y133438D01*
X316429Y133500D01*
Y126500D01*
D02*
G37*
G36*
X325020Y129843D02*
X325082Y129702D01*
X325187Y129529D01*
X325333Y129322D01*
X325753Y128811D01*
X326341Y128168D01*
X327098Y127393D01*
X322607Y122902D01*
X322203Y123302D01*
X320471Y124813D01*
X320298Y124918D01*
X320158Y124980D01*
X320050Y125000D01*
X325000Y129950D01*
X325020Y129843D01*
D02*
G37*
G36*
X303661Y133438D02*
X303804Y133383D01*
X304001Y133334D01*
X304250Y133292D01*
X304909Y133227D01*
X305779Y133188D01*
X306863Y133175D01*
Y127633D01*
X307098Y127393D01*
X306863Y127157D01*
Y126825D01*
X306528Y126823D01*
X302607Y122902D01*
X302204Y123302D01*
X300471Y124813D01*
X300298Y124918D01*
X300158Y124980D01*
X300050Y125000D01*
X303571Y128521D01*
Y133500D01*
X303661Y133438D01*
D02*
G37*
G36*
X376687Y86224D02*
X376795Y85619D01*
X376975Y85003D01*
X377227Y84375D01*
X377551Y83735D01*
X377947Y83083D01*
X378414Y82419D01*
X378954Y81743D01*
X379566Y81056D01*
X380250Y80356D01*
X369750D01*
X370434Y81056D01*
X371586Y82419D01*
X372053Y83083D01*
X372449Y83735D01*
X372773Y84375D01*
X373025Y85003D01*
X373205Y85619D01*
X373313Y86224D01*
X373349Y86816D01*
X376651D01*
X376687Y86224D01*
D02*
G37*
G36*
X352796Y85533D02*
X352858Y84808D01*
X352962Y84120D01*
X353107Y83470D01*
X353294Y82858D01*
X353522Y82282D01*
X353792Y81745D01*
X354103Y81244D01*
X354456Y80782D01*
X354850Y80356D01*
X344350D01*
X344744Y80782D01*
X345097Y81244D01*
X345408Y81745D01*
X345678Y82282D01*
X345906Y82858D01*
X346093Y83470D01*
X346238Y84120D01*
X346342Y84808D01*
X346404Y85533D01*
X346425Y86295D01*
X352775D01*
X352796Y85533D01*
D02*
G37*
G36*
X327396D02*
X327458Y84808D01*
X327562Y84120D01*
X327707Y83470D01*
X327894Y82858D01*
X328122Y82282D01*
X328392Y81745D01*
X328703Y81244D01*
X329056Y80782D01*
X329450Y80356D01*
X318950D01*
X319344Y80782D01*
X319697Y81244D01*
X320008Y81745D01*
X320278Y82282D01*
X320506Y82858D01*
X320693Y83470D01*
X320838Y84120D01*
X320942Y84808D01*
X321004Y85533D01*
X321025Y86295D01*
X327375D01*
X327396Y85533D01*
D02*
G37*
G36*
X233149Y196062D02*
X232834Y195683D01*
X232557Y195295D01*
X232317Y194895D01*
X232113Y194486D01*
X231947Y194066D01*
X231817Y193635D01*
X231725Y193194D01*
X231670Y192743D01*
X231651Y192280D01*
X228349D01*
X228330Y192743D01*
X228275Y193194D01*
X228183Y193635D01*
X228053Y194066D01*
X227887Y194486D01*
X227683Y194895D01*
X227443Y195295D01*
X227166Y195683D01*
X226851Y196062D01*
X226500Y196429D01*
X233500D01*
X233149Y196062D01*
D02*
G37*
G36*
X213149D02*
X212834Y195683D01*
X212557Y195295D01*
X212317Y194895D01*
X212113Y194486D01*
X211947Y194066D01*
X211817Y193635D01*
X211725Y193194D01*
X211670Y192743D01*
X211651Y192280D01*
X208349D01*
X208330Y192743D01*
X208275Y193194D01*
X208183Y193635D01*
X208053Y194066D01*
X207887Y194486D01*
X207683Y194895D01*
X207443Y195295D01*
X207166Y195683D01*
X206851Y196062D01*
X206500Y196429D01*
X213500D01*
X213149Y196062D01*
D02*
G37*
G36*
X223149Y176062D02*
X222834Y175683D01*
X222557Y175295D01*
X222317Y174895D01*
X222113Y174486D01*
X221947Y174066D01*
X221817Y173635D01*
X221725Y173194D01*
X221670Y172743D01*
X221651Y172280D01*
X218349D01*
X218330Y172743D01*
X218275Y173194D01*
X218183Y173635D01*
X218053Y174066D01*
X217887Y174486D01*
X217683Y174895D01*
X217443Y175295D01*
X217166Y175683D01*
X216851Y176062D01*
X216500Y176429D01*
X223500D01*
X223149Y176062D01*
D02*
G37*
G36*
X231670Y157257D02*
X231725Y156806D01*
X231817Y156365D01*
X231947Y155934D01*
X232113Y155514D01*
X232317Y155105D01*
X232557Y154705D01*
X232834Y154317D01*
X233149Y153938D01*
X233500Y153571D01*
X226500D01*
X226851Y153938D01*
X227166Y154317D01*
X227443Y154705D01*
X227683Y155105D01*
X227887Y155514D01*
X228053Y155934D01*
X228183Y156365D01*
X228275Y156806D01*
X228330Y157257D01*
X228349Y157720D01*
X231651D01*
X231670Y157257D01*
D02*
G37*
G36*
X211670D02*
X211725Y156806D01*
X211817Y156365D01*
X211947Y155934D01*
X212113Y155514D01*
X212317Y155105D01*
X212557Y154705D01*
X212834Y154317D01*
X213149Y153938D01*
X213500Y153571D01*
X206500D01*
X206851Y153938D01*
X207166Y154317D01*
X207443Y154705D01*
X207683Y155105D01*
X207887Y155514D01*
X208053Y155934D01*
X208183Y156365D01*
X208275Y156806D01*
X208330Y157257D01*
X208349Y157720D01*
X211651D01*
X211670Y157257D01*
D02*
G37*
G36*
X233149Y146062D02*
X232834Y145683D01*
X232557Y145295D01*
X232317Y144895D01*
X232113Y144486D01*
X231947Y144066D01*
X231817Y143635D01*
X231725Y143194D01*
X231670Y142743D01*
X231651Y142280D01*
X228349D01*
X228330Y142743D01*
X228275Y143194D01*
X228183Y143635D01*
X228053Y144066D01*
X227887Y144486D01*
X227683Y144895D01*
X227443Y145295D01*
X227166Y145683D01*
X226851Y146062D01*
X226500Y146429D01*
X233500D01*
X233149Y146062D01*
D02*
G37*
G36*
X213149D02*
X212834Y145683D01*
X212557Y145295D01*
X212317Y144895D01*
X212113Y144486D01*
X211947Y144066D01*
X211817Y143635D01*
X211725Y143194D01*
X211670Y142743D01*
X211651Y142280D01*
X208349D01*
X208330Y142743D01*
X208275Y143194D01*
X208183Y143635D01*
X208053Y144066D01*
X207887Y144486D01*
X207683Y144895D01*
X207443Y145295D01*
X207166Y145683D01*
X206851Y146062D01*
X206500Y146429D01*
X213500D01*
X213149Y146062D01*
D02*
G37*
G36*
X221670Y137257D02*
X221725Y136806D01*
X221817Y136365D01*
X221947Y135934D01*
X222113Y135514D01*
X222317Y135105D01*
X222557Y134705D01*
X222834Y134317D01*
X223149Y133938D01*
X223500Y133571D01*
X216500D01*
X216851Y133938D01*
X217166Y134317D01*
X217443Y134705D01*
X217683Y135105D01*
X217887Y135514D01*
X218053Y135934D01*
X218183Y136365D01*
X218275Y136806D01*
X218330Y137257D01*
X218349Y137720D01*
X221651D01*
X221670Y137257D01*
D02*
G37*
G36*
X223149Y126062D02*
X222834Y125683D01*
X222557Y125295D01*
X222317Y124895D01*
X222113Y124486D01*
X221947Y124066D01*
X221817Y123635D01*
X221725Y123194D01*
X221670Y122743D01*
X221651Y122280D01*
X218349D01*
X218330Y122743D01*
X218275Y123194D01*
X218183Y123635D01*
X218053Y124066D01*
X217887Y124486D01*
X217683Y124895D01*
X217443Y125295D01*
X217166Y125683D01*
X216851Y126062D01*
X216500Y126429D01*
X223500D01*
X223149Y126062D01*
D02*
G37*
G36*
X241257Y84129D02*
X241760Y83778D01*
X242323Y83470D01*
X242945Y83204D01*
X243627Y82980D01*
X244368Y82799D01*
X245168Y82661D01*
X246028Y82564D01*
X246947Y82511D01*
X247925Y82500D01*
X240500Y75075D01*
X240489Y76053D01*
X240340Y77832D01*
X240201Y78632D01*
X240020Y79373D01*
X239796Y80055D01*
X239530Y80677D01*
X239222Y81240D01*
X238871Y81743D01*
X238477Y82188D01*
X240812Y84523D01*
X241257Y84129D01*
D02*
G37*
G36*
X206723Y82188D02*
X206329Y81743D01*
X205978Y81240D01*
X205670Y80677D01*
X205404Y80055D01*
X205180Y79373D01*
X204999Y78632D01*
X204860Y77832D01*
X204764Y76972D01*
X204711Y76053D01*
X204700Y75075D01*
X197275Y82500D01*
X198253Y82511D01*
X200032Y82661D01*
X200832Y82799D01*
X201573Y82980D01*
X202255Y83204D01*
X202877Y83470D01*
X203440Y83778D01*
X203943Y84129D01*
X204388Y84523D01*
X206723Y82188D01*
D02*
G37*
G36*
X283149Y176062D02*
X282834Y175683D01*
X282557Y175295D01*
X282317Y174895D01*
X282113Y174486D01*
X281947Y174066D01*
X281817Y173635D01*
X281725Y173194D01*
X281670Y172743D01*
X281651Y172280D01*
X278349D01*
X278330Y172743D01*
X278275Y173194D01*
X278183Y173635D01*
X278053Y174066D01*
X277887Y174486D01*
X277683Y174895D01*
X277443Y175295D01*
X277166Y175683D01*
X276851Y176062D01*
X276500Y176429D01*
X283500D01*
X283149Y176062D01*
D02*
G37*
G36*
X281670Y137257D02*
X281725Y136806D01*
X281817Y136365D01*
X281947Y135934D01*
X282113Y135514D01*
X282317Y135105D01*
X282557Y134705D01*
X282834Y134317D01*
X283149Y133938D01*
X283500Y133571D01*
X276500D01*
X276851Y133938D01*
X277166Y134317D01*
X277443Y134705D01*
X277683Y135105D01*
X277887Y135514D01*
X278053Y135934D01*
X278183Y136365D01*
X278275Y136806D01*
X278330Y137257D01*
X278349Y137720D01*
X281651D01*
X281670Y137257D01*
D02*
G37*
G36*
X283149Y126062D02*
X282834Y125683D01*
X282557Y125295D01*
X282317Y124895D01*
X282113Y124486D01*
X281947Y124066D01*
X281817Y123635D01*
X281725Y123194D01*
X281670Y122743D01*
X281651Y122280D01*
X278349D01*
X278330Y122743D01*
X278275Y123194D01*
X278183Y123635D01*
X278053Y124066D01*
X277887Y124486D01*
X277683Y124895D01*
X277443Y125295D01*
X277166Y125683D01*
X276851Y126062D01*
X276500Y126429D01*
X283500D01*
X283149Y126062D01*
D02*
G37*
G36*
X292057Y84129D02*
X292560Y83778D01*
X293123Y83470D01*
X293745Y83204D01*
X294427Y82980D01*
X295168Y82799D01*
X295968Y82661D01*
X296828Y82564D01*
X297747Y82511D01*
X298725Y82500D01*
X291300Y75075D01*
X291289Y76053D01*
X291140Y77832D01*
X291001Y78632D01*
X290820Y79373D01*
X290596Y80055D01*
X290330Y80677D01*
X290022Y81240D01*
X289671Y81743D01*
X289277Y82188D01*
X291612Y84523D01*
X292057Y84129D01*
D02*
G37*
D14*
X349600Y75000D02*
Y100400D01*
X320000Y130000D02*
X349600Y100400D01*
X324200Y75000D02*
Y105800D01*
X300000Y130000D02*
X324200Y105800D01*
X300000Y130000D02*
X320000D01*
X300000Y180000D02*
X320000D01*
Y130000D02*
Y140000D01*
X310000Y150000D02*
X320000Y140000D01*
X300000Y130000D02*
Y180000D01*
X310000Y150000D02*
X320000Y160000D01*
Y180000D01*
X300000D02*
X310000Y190000D01*
Y200000D01*
D15*
X125200Y130000D02*
X140000D01*
X70200Y75000D02*
X125200Y130000D01*
X140000D02*
Y180000D01*
X95600Y75000D02*
X96561D01*
X150000Y128439D01*
Y150000D01*
Y200000D01*
X121000Y75000D02*
X160000Y114000D01*
Y130000D01*
Y180000D01*
X146400Y75000D02*
X170000Y98600D01*
Y150000D01*
Y200000D01*
X171800Y75000D02*
X190000Y93200D01*
Y150000D01*
Y200000D01*
X220000Y77600D02*
X222600Y75000D01*
X220000Y77600D02*
Y130000D01*
Y180000D01*
X197200Y75000D02*
X210000Y87800D01*
Y150000D01*
Y200000D01*
X230000Y93000D02*
X248000Y75000D01*
X230000Y93000D02*
Y150000D01*
Y200000D01*
X250000Y98400D02*
X273400Y75000D01*
X250000Y98400D02*
Y150000D01*
Y200000D01*
X280000Y93800D02*
X298800Y75000D01*
X280000Y93800D02*
Y130000D01*
X375000Y75000D02*
Y105000D01*
X330000Y150000D02*
X375000Y105000D01*
X280000Y130000D02*
Y180000D01*
X330000Y150000D02*
Y200000D01*
D16*
X375000Y15000D02*
D03*
X70200Y75000D02*
D03*
D17*
X349600Y15000D02*
D03*
X324200D02*
D03*
X298800D02*
D03*
X273400D02*
D03*
X248000D02*
D03*
X222600D02*
D03*
X197200D02*
D03*
X171800D02*
D03*
X146400D02*
D03*
X121000D02*
D03*
X95600D02*
D03*
X70200D02*
D03*
X95600Y75000D02*
D03*
X121000D02*
D03*
X146400D02*
D03*
X171800D02*
D03*
X197200D02*
D03*
X222600D02*
D03*
X248000D02*
D03*
X273400D02*
D03*
X298800D02*
D03*
X324200D02*
D03*
X349600D02*
D03*
X375000D02*
D03*
D18*
X320000Y130000D02*
D03*
X310000Y150000D02*
D03*
X300000Y130000D02*
D03*
X290000Y150000D02*
D03*
X280000Y130000D02*
D03*
X270000Y150000D02*
D03*
X260000Y130000D02*
D03*
X250000Y150000D02*
D03*
X240000Y130000D02*
D03*
X230000Y150000D02*
D03*
X220000Y130000D02*
D03*
X210000Y150000D02*
D03*
X200000Y130000D02*
D03*
X190000Y150000D02*
D03*
X180000Y130000D02*
D03*
X170000Y150000D02*
D03*
X160000Y130000D02*
D03*
X150000Y150000D02*
D03*
X140000Y130000D02*
D03*
X330000Y150000D02*
D03*
X320000Y180000D02*
D03*
X310000Y200000D02*
D03*
X300000Y180000D02*
D03*
X290000Y200000D02*
D03*
X280000Y180000D02*
D03*
X270000Y200000D02*
D03*
X260000Y180000D02*
D03*
X250000Y200000D02*
D03*
X240000Y180000D02*
D03*
X230000Y200000D02*
D03*
X220000Y180000D02*
D03*
X210000Y200000D02*
D03*
X200000Y180000D02*
D03*
X190000Y200000D02*
D03*
X180000Y180000D02*
D03*
X170000Y200000D02*
D03*
X160000Y180000D02*
D03*
X150000Y200000D02*
D03*
X140000Y180000D02*
D03*
X330000Y200000D02*
D03*
D19*
X369200Y176300D02*
D03*
X388250Y138200D02*
D03*
Y62000D02*
D03*
X293000Y100100D02*
D03*
X312050Y62000D02*
D03*
X235850D02*
D03*
X159650D02*
D03*
X102500Y176300D02*
D03*
X64400D02*
D03*
X83450Y138200D02*
D03*
X64400Y100100D02*
D03*
X26300Y176300D02*
D03*
X45350Y138200D02*
D03*
X26300Y100100D02*
D03*
X45350Y62000D02*
D03*
X26300Y23900D02*
D03*
M02*
