G04*
G04 #@! TF.GenerationSoftware,Altium Limited,Altium Designer,19.1.8 (144)*
G04*
G04 Layer_Color=65535*
%FSLAX44Y44*%
%MOMM*%
G71*
G01*
G75*
%ADD10C,0.2540*%
D10*
X13099Y117115D02*
X28336D01*
X13099D02*
X28336Y122919D01*
X13099Y128724D02*
X28336Y122919D01*
X13099Y128724D02*
X28336D01*
Y144686D02*
X13099Y138882D01*
X28336Y133077D01*
X23257Y135254D02*
Y142509D01*
X21080Y148241D02*
Y154771D01*
X20355Y156948D01*
X19629Y157674D01*
X18178Y158399D01*
X16001D01*
X14550Y157674D01*
X13825Y156948D01*
X13099Y154771D01*
Y148241D01*
X28336D01*
X21080Y161809D02*
Y168339D01*
X20355Y170516D01*
X19629Y171241D01*
X18178Y171967D01*
X16001D01*
X14550Y171241D01*
X13825Y170516D01*
X13099Y168339D01*
Y161809D01*
X28336D01*
X13099Y175377D02*
X28336D01*
Y184084D01*
X13099Y195185D02*
Y185753D01*
X28336D01*
Y195185D01*
X20355Y185753D02*
Y191557D01*
X37479Y102386D02*
X52716D01*
X37479D02*
Y108916D01*
X38205Y111093D01*
X38930Y111818D01*
X40381Y112544D01*
X41833D01*
X43284Y111818D01*
X44009Y111093D01*
X44735Y108916D01*
Y102386D02*
Y108916D01*
X45460Y111093D01*
X46186Y111818D01*
X47637Y112544D01*
X49814D01*
X51265Y111818D01*
X51990Y111093D01*
X52716Y108916D01*
Y102386D01*
X37479Y115954D02*
X52716D01*
X37479D02*
Y122484D01*
X38205Y124661D01*
X38930Y125386D01*
X40381Y126112D01*
X41833D01*
X43284Y125386D01*
X44009Y124661D01*
X44735Y122484D01*
Y115954D01*
Y121033D02*
X52716Y126112D01*
X37479Y138954D02*
Y129522D01*
X52716D01*
Y138954D01*
X44735Y129522D02*
Y135326D01*
X52716Y153103D02*
X37479Y147298D01*
X52716Y141494D01*
X47637Y143670D02*
Y150926D01*
X37479Y156658D02*
X52716D01*
X37479Y166816D02*
X47637Y156658D01*
X44009Y160286D02*
X52716Y166816D01*
X37479Y174579D02*
X38205Y173128D01*
X39656Y171677D01*
X41107Y170951D01*
X43284Y170226D01*
X46912D01*
X49088Y170951D01*
X50539Y171677D01*
X51990Y173128D01*
X52716Y174579D01*
Y177481D01*
X51990Y178932D01*
X50539Y180384D01*
X49088Y181109D01*
X46912Y181835D01*
X43284D01*
X41107Y181109D01*
X39656Y180384D01*
X38205Y178932D01*
X37479Y177481D01*
Y174579D01*
Y185390D02*
X48363D01*
X50539Y186115D01*
X51990Y187567D01*
X52716Y189743D01*
Y191194D01*
X51990Y193371D01*
X50539Y194822D01*
X48363Y195548D01*
X37479D01*
Y204835D02*
X52716D01*
X37479Y199756D02*
Y209914D01*
X20883Y21609D02*
X20158Y23060D01*
X18707Y24511D01*
X17256Y25237D01*
X14353D01*
X12902Y24511D01*
X11451Y23060D01*
X10726Y21609D01*
X10000Y19432D01*
Y15805D01*
X10726Y13628D01*
X11451Y12177D01*
X12902Y10726D01*
X14353Y10000D01*
X17256D01*
X18707Y10726D01*
X20158Y12177D01*
X20883Y13628D01*
Y15805D01*
X17256D02*
X20883D01*
X24366Y25237D02*
Y10000D01*
Y25237D02*
X34524Y10000D01*
Y25237D02*
Y10000D01*
X38732Y25237D02*
Y10000D01*
Y25237D02*
X43811D01*
X45988Y24511D01*
X47439Y23060D01*
X48164Y21609D01*
X48890Y19432D01*
Y15805D01*
X48164Y13628D01*
X47439Y12177D01*
X45988Y10726D01*
X43811Y10000D01*
X38732D01*
X367500Y52737D02*
Y37500D01*
Y52737D02*
X376932D01*
X367500Y45481D02*
X373304D01*
X390283Y37500D02*
X384478Y52737D01*
X378674Y37500D01*
X380850Y42579D02*
X388106D01*
X393838Y52737D02*
Y37500D01*
Y52737D02*
X403996Y37500D01*
Y52737D02*
Y37500D01*
X342263Y41207D02*
Y33951D01*
X348793Y33226D01*
X348068Y33951D01*
X347342Y36128D01*
Y38305D01*
X348068Y40481D01*
X349519Y41932D01*
X351696Y42658D01*
X353147D01*
X355323Y41932D01*
X356774Y40481D01*
X357500Y38305D01*
Y36128D01*
X356774Y33951D01*
X356049Y33226D01*
X354598Y32500D01*
X342263Y46068D02*
X357500Y51872D01*
X342263Y57677D02*
X357500Y51872D01*
X317263Y41207D02*
Y33951D01*
X323793Y33226D01*
X323068Y33951D01*
X322342Y36128D01*
Y38305D01*
X323068Y40481D01*
X324519Y41932D01*
X326696Y42658D01*
X328147D01*
X330323Y41932D01*
X331774Y40481D01*
X332500Y38305D01*
Y36128D01*
X331774Y33951D01*
X331049Y33226D01*
X329598Y32500D01*
X317263Y46068D02*
X332500Y51872D01*
X317263Y57677D02*
X332500Y51872D01*
X292263Y32500D02*
X307500D01*
X292263D02*
Y39030D01*
X292989Y41207D01*
X293714Y41932D01*
X295166Y42658D01*
X296617D01*
X298068Y41932D01*
X298793Y41207D01*
X299519Y39030D01*
Y32500D02*
Y39030D01*
X300244Y41207D01*
X300970Y41932D01*
X302421Y42658D01*
X304598D01*
X306049Y41932D01*
X306774Y41207D01*
X307500Y39030D01*
Y32500D01*
X292263Y47519D02*
Y55500D01*
X298068Y51147D01*
Y53323D01*
X298793Y54775D01*
X299519Y55500D01*
X301695Y56226D01*
X303147D01*
X305323Y55500D01*
X306774Y54049D01*
X307500Y51872D01*
Y49696D01*
X306774Y47519D01*
X306049Y46793D01*
X304598Y46068D01*
X280000Y44109D02*
X264763Y38305D01*
X280000Y32500D01*
X274921Y34677D02*
Y41932D01*
X264763Y49115D02*
Y57097D01*
X270568Y52743D01*
Y54920D01*
X271293Y56371D01*
X272019Y57097D01*
X274195Y57822D01*
X275647D01*
X277823Y57097D01*
X279274Y55645D01*
X280000Y53469D01*
Y51292D01*
X279274Y49115D01*
X278549Y48390D01*
X277098Y47664D01*
X239763Y32500D02*
X255000D01*
X239763D02*
Y39030D01*
X240489Y41207D01*
X241214Y41932D01*
X242666Y42658D01*
X244117D01*
X245568Y41932D01*
X246293Y41207D01*
X247019Y39030D01*
Y32500D02*
Y39030D01*
X247744Y41207D01*
X248470Y41932D01*
X249921Y42658D01*
X252098D01*
X253549Y41932D01*
X254274Y41207D01*
X255000Y39030D01*
Y32500D01*
X243391Y46793D02*
X242666D01*
X241214Y47519D01*
X240489Y48245D01*
X239763Y49696D01*
Y52598D01*
X240489Y54049D01*
X241214Y54775D01*
X242666Y55500D01*
X244117D01*
X245568Y54775D01*
X247744Y53323D01*
X255000Y46068D01*
Y56226D01*
X230000Y44109D02*
X214763Y38305D01*
X230000Y32500D01*
X224921Y34677D02*
Y41932D01*
X218391Y48390D02*
X217666D01*
X216214Y49115D01*
X215489Y49841D01*
X214763Y51292D01*
Y54194D01*
X215489Y55645D01*
X216214Y56371D01*
X217666Y57097D01*
X219117D01*
X220568Y56371D01*
X222744Y54920D01*
X230000Y47664D01*
Y57822D01*
X189763Y32500D02*
X205000D01*
X189763D02*
Y39030D01*
X190489Y41207D01*
X191214Y41932D01*
X192666Y42658D01*
X194117D01*
X195568Y41932D01*
X196293Y41207D01*
X197019Y39030D01*
Y32500D02*
Y39030D01*
X197744Y41207D01*
X198470Y41932D01*
X199921Y42658D01*
X202098D01*
X203549Y41932D01*
X204274Y41207D01*
X205000Y39030D01*
Y32500D01*
X192666Y46068D02*
X191940Y47519D01*
X189763Y49696D01*
X205000D01*
X180000Y44109D02*
X164763Y38305D01*
X180000Y32500D01*
X174921Y34677D02*
Y41932D01*
X167666Y47664D02*
X166940Y49115D01*
X164763Y51292D01*
X180000D01*
X87263Y32500D02*
X102500D01*
X87263D02*
Y39030D01*
X87989Y41207D01*
X88714Y41932D01*
X90166Y42658D01*
X91617D01*
X93068Y41932D01*
X93793Y41207D01*
X94519Y39030D01*
Y32500D02*
Y39030D01*
X95244Y41207D01*
X95970Y41932D01*
X97421Y42658D01*
X99598D01*
X101049Y41932D01*
X101774Y41207D01*
X102500Y39030D01*
Y32500D01*
X87263Y51147D02*
X102500D01*
X87263Y46068D02*
Y56226D01*
X42500Y52737D02*
Y37500D01*
X51207D01*
X62308Y52737D02*
X52875D01*
Y37500D01*
X62308D01*
X52875Y45481D02*
X58680D01*
X64847Y52737D02*
Y37500D01*
Y52737D02*
X69926D01*
X72103Y52011D01*
X73554Y50560D01*
X74279Y49109D01*
X75005Y46932D01*
Y43305D01*
X74279Y41128D01*
X73554Y39677D01*
X72103Y38226D01*
X69926Y37500D01*
X64847D01*
X139763Y32500D02*
X155000D01*
X139763D02*
Y39030D01*
X140489Y41207D01*
X141214Y41932D01*
X142666Y42658D01*
X144117D01*
X145568Y41932D01*
X146293Y41207D01*
X147019Y39030D01*
Y32500D02*
Y39030D01*
X147744Y41207D01*
X148470Y41932D01*
X149921Y42658D01*
X152098D01*
X153549Y41932D01*
X154274Y41207D01*
X155000Y39030D01*
Y32500D01*
X139763Y50421D02*
X140489Y48245D01*
X142666Y46793D01*
X146293Y46068D01*
X148470D01*
X152098Y46793D01*
X154274Y48245D01*
X155000Y50421D01*
Y51872D01*
X154274Y54049D01*
X152098Y55500D01*
X148470Y56226D01*
X146293D01*
X142666Y55500D01*
X140489Y54049D01*
X139763Y51872D01*
Y50421D01*
X127500Y44109D02*
X112263Y38305D01*
X127500Y32500D01*
X122421Y34677D02*
Y41932D01*
X112263Y52017D02*
X112989Y49841D01*
X115166Y48390D01*
X118793Y47664D01*
X120970D01*
X124598Y48390D01*
X126774Y49841D01*
X127500Y52017D01*
Y53469D01*
X126774Y55645D01*
X124598Y57097D01*
X120970Y57822D01*
X118793D01*
X115166Y57097D01*
X112989Y55645D01*
X112263Y53469D01*
Y52017D01*
X90000Y139756D02*
X96530D01*
X98707Y140481D01*
X99432Y141207D01*
X100158Y142658D01*
Y144834D01*
X99432Y146286D01*
X98707Y147011D01*
X96530Y147737D01*
X90000D01*
Y132500D01*
X104293Y144109D02*
Y144834D01*
X105019Y146286D01*
X105745Y147011D01*
X107196Y147737D01*
X110098D01*
X111549Y147011D01*
X112275Y146286D01*
X113000Y144834D01*
Y143383D01*
X112275Y141932D01*
X110823Y139756D01*
X103568Y132500D01*
X113726D01*
X90000Y187256D02*
X96530D01*
X98707Y187981D01*
X99432Y188707D01*
X100158Y190158D01*
Y192334D01*
X99432Y193786D01*
X98707Y194511D01*
X96530Y195237D01*
X90000D01*
Y180000D01*
X103568Y192334D02*
X105019Y193060D01*
X107196Y195237D01*
Y180000D01*
M02*
