G04*
G04 #@! TF.GenerationSoftware,Altium Limited,Altium Designer,19.1.8 (144)*
G04*
G04 Layer_Color=16711935*
%FSLAX44Y44*%
%MOMM*%
G71*
G01*
G75*
%ADD11R,1.5508X1.5508*%
%ADD12C,1.5508*%
%ADD13C,1.0508*%
D11*
X375000Y15000D02*
D03*
X70200Y75000D02*
D03*
D12*
X349600Y15000D02*
D03*
X324200D02*
D03*
X298800D02*
D03*
X273400D02*
D03*
X248000D02*
D03*
X222600D02*
D03*
X197200D02*
D03*
X171800D02*
D03*
X146400D02*
D03*
X121000D02*
D03*
X95600D02*
D03*
X70200D02*
D03*
X95600Y75000D02*
D03*
X121000D02*
D03*
X146400D02*
D03*
X171800D02*
D03*
X197200D02*
D03*
X222600D02*
D03*
X248000D02*
D03*
X273400D02*
D03*
X298800D02*
D03*
X324200D02*
D03*
X349600D02*
D03*
X375000D02*
D03*
D13*
X320000Y130000D02*
D03*
X310000Y150000D02*
D03*
X300000Y130000D02*
D03*
X290000Y150000D02*
D03*
X280000Y130000D02*
D03*
X270000Y150000D02*
D03*
X260000Y130000D02*
D03*
X250000Y150000D02*
D03*
X240000Y130000D02*
D03*
X230000Y150000D02*
D03*
X220000Y130000D02*
D03*
X210000Y150000D02*
D03*
X200000Y130000D02*
D03*
X190000Y150000D02*
D03*
X180000Y130000D02*
D03*
X170000Y150000D02*
D03*
X160000Y130000D02*
D03*
X150000Y150000D02*
D03*
X140000Y130000D02*
D03*
X330000Y150000D02*
D03*
X320000Y180000D02*
D03*
X310000Y200000D02*
D03*
X300000Y180000D02*
D03*
X290000Y200000D02*
D03*
X280000Y180000D02*
D03*
X270000Y200000D02*
D03*
X260000Y180000D02*
D03*
X250000Y200000D02*
D03*
X240000Y180000D02*
D03*
X230000Y200000D02*
D03*
X220000Y180000D02*
D03*
X210000Y200000D02*
D03*
X200000Y180000D02*
D03*
X190000Y200000D02*
D03*
X180000Y180000D02*
D03*
X170000Y200000D02*
D03*
X160000Y180000D02*
D03*
X150000Y200000D02*
D03*
X140000Y180000D02*
D03*
X330000Y200000D02*
D03*
M02*
