M48
;Layer_Color=9474304
;FILE_FORMAT=4:4
METRIC,TZ
;TYPE=PLATED
T1F00S00C0.3810
T2F00S00C0.7000
T3F00S00C0.9000
%
T01
X388250Y62000
X312050
X235850
X159650
X45350
X26300Y23900
Y100100
X64400
X83450Y138200
X45350
X64400Y176300
X102500
X26300
X293000Y100100
X388250Y138200
X369200Y176300
T02
X140000Y130000
X160000
X180000
X200000
X220000
X240000
X260000
X280000
X300000
X320000
X310000Y150000
X290000
X270000
X250000
X230000
X210000
X190000
X170000
X150000
X160000Y180000
X180000
X200000
X220000
X240000
X260000
X280000
X300000
X320000
X310000Y200000
X290000
X270000
X250000
X230000
X210000
X190000
X170000
X150000
X140000Y180000
X330000Y200000
Y150000
T03
X349600Y15000
X375000
Y75000
X349600
X324200
X298800
X273400
X248000
X222600
X197200
X171800
X146400
X121000
X95600
X70200
Y15000
X95600
X121000
X146400
X171800
X197200
X222600
X248000
X273400
X298800
X324200
M30
